<svg width="55" height="17" viewBox="0 0 55 17" fill="none" xmlns="http://www.w3.org/2000/svg">
<path d="M3.95605 7.48145H5.28809C6.02572 7.48145 6.67025 7.35254 7.22168 7.09473C7.77311 6.82975 8.19206 6.47168 8.47852 6.02051C8.77214 5.56217 8.91895 5.03581 8.91895 4.44141C8.91895 3.4388 8.63607 2.65462 8.07031 2.08887C7.50456 1.52311 6.69173 1.24023 5.63184 1.24023C4.62923 1.24023 3.80566 1.53743 3.16113 2.13184C2.52376 2.71908 2.20508 3.49609 2.20508 4.46289H0.916016C0.916016 3.65365 1.12012 2.91602 1.52832 2.25C1.93652 1.57682 2.50228 1.05762 3.22559 0.692383C3.94889 0.327148 4.75098 0.144531 5.63184 0.144531C7.0498 0.144531 8.16699 0.53125 8.9834 1.30469C9.7998 2.07812 10.208 3.13802 10.208 4.48438C10.208 5.23633 9.9681 5.93099 9.48828 6.56836C9.01562 7.19857 8.36393 7.67122 7.5332 7.98633C8.50716 8.25846 9.24479 8.72754 9.74609 9.39355C10.2474 10.0524 10.498 10.8402 10.498 11.7568C10.498 13.096 10.0612 14.1738 9.1875 14.9902C8.3138 15.8066 7.14648 16.2148 5.68555 16.2148C4.75456 16.2148 3.89876 16.0286 3.11816 15.6562C2.34473 15.2839 1.74316 14.7646 1.31348 14.0986C0.890951 13.4255 0.679688 12.6449 0.679688 11.7568H1.96875C1.96875 12.7523 2.31608 13.5651 3.01074 14.1953C3.7054 14.8184 4.59701 15.1299 5.68555 15.1299C6.79557 15.1299 7.65853 14.847 8.27441 14.2812C8.89746 13.7083 9.20898 12.8812 9.20898 11.7998C9.20898 10.7542 8.8724 9.95573 8.19922 9.4043C7.5332 8.85286 6.5485 8.57715 5.24512 8.57715H3.95605V7.48145ZM22.7334 9.47949C22.7334 11.6852 22.3288 13.361 21.5195 14.5068C20.7103 15.6455 19.5179 16.2148 17.9424 16.2148C16.3955 16.2148 15.2103 15.6562 14.3867 14.5391C13.5632 13.4147 13.1406 11.7819 13.1191 9.64062V6.83691C13.1191 4.63835 13.5273 2.97331 14.3438 1.8418C15.1602 0.710286 16.3525 0.144531 17.9209 0.144531C19.4678 0.144531 20.6494 0.692383 21.4658 1.78809C22.2822 2.87663 22.7048 4.48438 22.7334 6.61133V9.47949ZM21.4443 6.67578C21.4443 4.88542 21.1507 3.5319 20.5635 2.61523C19.9834 1.69857 19.1025 1.24023 17.9209 1.24023C16.7607 1.24023 15.887 1.68783 15.2998 2.58301C14.7126 3.47819 14.4118 4.79948 14.3975 6.54688V9.61914C14.3975 11.4023 14.6982 12.7666 15.2998 13.7119C15.9085 14.6572 16.7894 15.1299 17.9424 15.1299C19.0882 15.1299 19.9548 14.668 20.542 13.7441C21.1364 12.8203 21.4372 11.4668 21.4443 9.68359V6.67578ZM34.5439 14.8926L37.4834 8.60352H38.4951V16H37.6748V9.92969L34.8311 16H34.25L31.3516 9.79297V16H30.5381V8.60352H31.6113L34.5439 14.8926ZM45.5498 8.60352H46.3701V16H45.5498V9.92285L41.5576 16H40.7441V8.60352H41.5576V14.6875L45.5498 8.60352ZM54.2451 16H53.4248V12.6094H49.4395V16H48.6191V8.60352H49.4395V11.9189H53.4248V8.60352H54.2451V16Z" fill="#CC2128"/>
</svg>
