<svg width="26" height="26" viewBox="0 0 26 26" fill="none" xmlns="http://www.w3.org/2000/svg">
<g clip-path="url(#clip0)">
<path d="M25.9207 12.7537L24.1929 10.3702C24.0482 10.1705 23.9824 9.92448 24.008 9.67924L24.3142 6.75207C24.3331 6.57127 24.2335 6.39907 24.0675 6.32515L21.3792 5.12889C21.1533 5.02836 20.9727 4.84771 20.8721 4.6218L19.6759 1.93332C19.6015 1.76767 19.4295 1.66836 19.2489 1.68638L16.3211 1.99241C16.0759 2.01804 15.8299 1.95218 15.6303 1.80748L13.2469 0.0798553C13.1001 -0.0266184 12.9015 -0.0266184 12.7547 0.0798553L10.3711 1.80751C10.1715 1.95219 9.92547 2.01804 9.68027 1.99241L6.75263 1.68638C6.57224 1.66918 6.40086 1.76828 6.32571 1.93291L5.12942 4.62143C5.02892 4.84732 4.84829 5.02796 4.62242 5.12849L1.93388 6.32515C1.76803 6.39886 1.66852 6.57106 1.68735 6.75166L1.99338 9.67931C2.01901 9.92451 1.95316 10.1705 1.80848 10.3701L0.0808318 12.7537C-0.0256418 12.9005 -0.0256418 13.0991 0.0808318 13.2459L1.80846 15.6293C1.95316 15.8289 2.01901 16.0749 1.99338 16.3201L1.68735 19.248C1.66831 19.4286 1.76782 19.601 1.93388 19.6749L4.62235 20.8712C4.84826 20.9717 5.02893 21.1524 5.12945 21.3783L6.32571 24.0667C6.40045 24.2318 6.57203 24.3311 6.75263 24.3137L9.68021 24.0075C9.92545 23.9818 10.1715 24.0477 10.3712 24.1924L12.7547 25.9202C12.9015 26.0267 13.1001 26.0267 13.2469 25.9202L15.6302 24.1924C15.8299 24.0477 16.0759 23.9818 16.3212 24.0075L19.2489 24.3137C19.4295 24.3319 19.6013 24.2326 19.6759 24.0671L20.8722 21.3786C20.9727 21.1527 21.1533 20.9721 21.3791 20.8716L24.0675 19.6749C24.2333 19.601 24.3329 19.429 24.3142 19.2484L24.008 16.3206C23.9824 16.0754 24.0482 15.8293 24.193 15.6297L25.9207 13.2463C26.0274 13.0995 26.0274 12.9005 25.9207 12.7537Z" fill="#42BA18"/>
<path d="M18.6168 9.21444L12.2684 15.1561L9.38321 12.4549C9.22928 12.3158 9.0231 12.2388 8.8091 12.2405C8.5951 12.2423 8.39039 12.3226 8.23906 12.4642C8.08773 12.6059 8.00189 12.7975 8.00003 12.9978C7.99817 13.198 8.08044 13.391 8.22911 13.5351L11.6914 16.7763C11.8445 16.9195 12.052 17 12.2684 17C12.4849 17 12.6924 16.9195 12.8455 16.7763L19.7709 10.2946C19.9196 10.1505 20.0018 9.95756 20 9.75727C19.9981 9.55698 19.9123 9.36538 19.7609 9.22374C19.6096 9.08211 19.4049 9.00177 19.1909 9.00003C18.9769 8.99829 18.7707 9.07529 18.6168 9.21444Z" fill="white"/>
</g>
<defs>
<clipPath id="clip0">
<rect width="26" height="26" fill="white"/>
</clipPath>
</defs>
</svg>
