<svg width="32" height="43" viewBox="0 0 32 43" fill="none" xmlns="http://www.w3.org/2000/svg">
<g clip-path="url(#clip0)" filter="url(#filter0_i)">
<path fill-rule="evenodd" clip-rule="evenodd" d="M30.8263 39.1805L26.8241 38.4632L24.8386 42.0184C23.3971 43.8029 22.4824 40.868 22.0804 39.8458L18.2169 32.5587C19.1074 32.2503 20.1816 31.3598 21.2834 30.3584C23.4838 30.4034 25.5351 30.0223 27.0424 28.1026L31.4812 36.6787L31.8658 37.5034C32.1707 38.5741 32.0113 39.2809 30.8263 39.1805ZM16.0027 0.00427823C16.7546 -0.0269075 17.3471 0.232973 17.9466 0.614132C18.7054 1.09578 19.5613 2.04867 20.6182 2.6516C22.1047 3.50054 24.8559 2.32935 26.2628 4.42225C27.084 5.64196 27.1221 6.59832 27.1845 7.54429C27.2503 8.56302 27.4305 9.50206 28.4735 10.8812C30.2026 13.1681 30.5629 14.6893 29.6724 16.2728C29.066 17.3539 27.7874 17.9534 27.4929 18.6395C26.8622 20.0948 27.5587 21.1932 26.6994 22.8911C26.0999 24.0692 25.1782 24.8454 23.9481 25.2404C22.912 25.5731 21.8725 25.0914 21.0409 25.4414C19.5821 26.0547 18.5079 27.4789 17.3471 27.8393C16.9001 27.9779 16.4531 28.0472 16.0061 28.0437C15.5591 28.0472 15.1121 27.9779 14.6651 27.8393C13.5043 27.4789 12.4302 26.0547 10.9714 25.4414C10.1398 25.0914 9.10023 25.5766 8.06417 25.2404C6.83407 24.8454 5.91236 24.0692 5.3129 22.8911C4.4501 21.1932 5.14658 20.0948 4.5194 18.6395C4.22487 17.9534 2.94625 17.3539 2.33986 16.2728C1.44241 14.6893 1.80278 13.1681 3.53185 10.8846C4.57484 9.50552 4.75502 8.56649 4.82086 7.54775C4.88323 6.60179 4.92135 5.64543 5.74257 4.42572C7.15286 2.33281 9.90413 3.50401 11.3872 2.65506C12.444 2.05214 13.2999 1.09924 14.0588 0.617597C14.6548 0.232973 15.2507 -0.0303726 16.0027 0.00427823ZM13.5598 12.4023L15.3686 14.1245L18.4802 10.9609C18.7886 10.649 18.9826 10.3995 19.3603 10.7876L20.5939 12.0489C20.9993 12.4508 20.9785 12.683 20.5974 13.0572L16.072 17.5064C15.2681 18.2964 15.4067 18.3449 14.5889 17.5341L11.4807 14.4433C11.311 14.2596 11.3283 14.0725 11.5154 13.8888L12.9465 12.4058C13.1648 12.1771 13.338 12.191 13.5598 12.4023ZM16.0027 5.6281C20.6389 5.6281 24.3986 9.38771 24.3986 14.024C24.3986 18.6603 20.6389 22.4199 16.0027 22.4199C11.3664 22.4199 7.60678 18.6603 7.60678 14.024C7.60678 9.38425 11.3664 5.6281 16.0027 5.6281ZM1.1756 39.1805L5.18123 38.4632L7.16672 42.0184C8.60819 43.8029 9.52297 40.868 9.92492 39.8458L13.7885 32.5587C12.898 32.2503 11.8238 31.3598 10.7219 30.3584C8.52156 30.4034 6.47024 30.0223 4.96293 28.1026L0.520697 36.6787L0.136074 37.5034C-0.168853 38.5741 -0.00945969 39.2809 1.1756 39.1805Z" fill="#CC2128"/>
</g>
<defs>
<filter id="filter0_i" x="0" y="0" width="32" height="46.5789" filterUnits="userSpaceOnUse" color-interpolation-filters="sRGB">
<feFlood flood-opacity="0" result="BackgroundImageFix"/>
<feBlend mode="normal" in="SourceGraphic" in2="BackgroundImageFix" result="shape"/>
<feColorMatrix in="SourceAlpha" type="matrix" values="0 0 0 0 0 0 0 0 0 0 0 0 0 0 0 0 0 0 127 0" result="hardAlpha"/>
<feOffset dy="4"/>
<feGaussianBlur stdDeviation="2"/>
<feComposite in2="hardAlpha" operator="arithmetic" k2="-1" k3="1"/>
<feColorMatrix type="matrix" values="0 0 0 0 0 0 0 0 0 0 0 0 0 0 0 0 0 0 0.25 0"/>
<feBlend mode="normal" in2="shape" result="effect1_innerShadow"/>
</filter>
<clipPath id="clip0">
<rect width="32" height="42.5789" fill="white"/>
</clipPath>
</defs>
</svg>
