<svg width="12" height="13" viewBox="0 0 12 13" fill="none" xmlns="http://www.w3.org/2000/svg">
<g clip-path="url(#clip0)">
<path d="M11.7499 6.14453C11.89 6.14453 12 6.25453 12 6.39454C12 6.53454 11.89 6.64455 11.7499 6.64455H11.4999V6.14453H11.7499Z" fill="#CC2128"/>
<path d="M6.24994 6.14453H11.4999V6.64455H6.24994V6.14453Z" fill="#CC2128"/>
<path d="M10.75 12.3945H6C6.14 12.3945 6.25 12.2845 6.25 12.1445V11.8945H10.75C11.165 11.8945 11.5 11.5595 11.5 11.1445V6.64453H11.75C11.89 6.64453 12 6.53453 12 6.39453V11.1445C12 11.8345 11.44 12.3945 10.75 12.3945Z" fill="#CC2128"/>
<path d="M12 1.64453V6.39453C12 6.25453 11.89 6.14453 11.75 6.14453H11.5V1.64453C11.5 1.22953 11.165 0.894531 10.75 0.894531H6.25V0.644531C6.25 0.504531 6.14 0.394531 6 0.394531H10.75C11.44 0.394531 12 0.954531 12 1.64453Z" fill="#CC2128"/>
<path d="M9.99993 3.39453C10.1399 3.39453 10.2499 3.50453 10.2499 3.64453C10.2499 3.78453 10.1399 3.89453 9.99993 3.89453H7.99994C7.85994 3.89453 7.74994 3.78453 7.74994 3.64453C7.74994 3.50453 7.85994 3.39453 7.99994 3.39453H9.99993Z" fill="#CC2128"/>
<path d="M9.99993 8.39453C10.1399 8.39453 10.2499 8.50453 10.2499 8.64453C10.2499 8.78453 10.1399 8.89453 9.99993 8.89453H7.99994C7.85994 8.89453 7.74994 8.78453 7.74994 8.64453C7.74994 8.50453 7.85994 8.39453 7.99994 8.39453H9.99993Z" fill="#CC2128"/>
<path d="M9.99993 9.89453C10.1399 9.89453 10.2499 10.0045 10.2499 10.1445C10.2499 10.2845 10.1399 10.3945 9.99993 10.3945H7.99994C7.85994 10.3945 7.74994 10.2845 7.74994 10.1445C7.74994 10.0045 7.85994 9.89453 7.99994 9.89453H9.99993Z" fill="#CC2128"/>
<path d="M6.25005 11.8945V12.1445C6.25005 12.2845 6.14005 12.3945 6.00006 12.3945C5.86006 12.3945 5.75006 12.2845 5.75006 12.1445V11.8945H6.25005Z" fill="#CC2128"/>
<path d="M5.75006 6.64453H6.25005V11.8945H5.75006V6.64453Z" fill="#CC2128"/>
<path d="M5.75006 6.14453H6.25005V6.64455H5.75006V6.14453Z" fill="#CC2128"/>
<path d="M5.75006 0.894531H6.25005V6.14453H5.75006V0.894531Z" fill="#CC2128"/>
<path d="M6.25005 0.644531V0.894531H5.75006V0.644531C5.75006 0.504531 5.86006 0.394531 6.00006 0.394531C6.14005 0.394531 6.25005 0.504531 6.25005 0.644531Z" fill="#CC2128"/>
<path d="M0.500061 6.14453H5.75006V6.64455H0.500061V6.14453Z" fill="#CC2128"/>
<path d="M3.99994 3.39453C4.13994 3.39453 4.24994 3.50453 4.24994 3.64453C4.24994 3.78453 4.13994 3.89453 3.99994 3.89453H3.24994V3.39453H3.99994Z" fill="#CC2128"/>
<path d="M3.92501 9.96953C4.02501 10.0645 4.02501 10.2245 3.92501 10.3195C3.88001 10.3695 3.81501 10.3945 3.75001 10.3945C3.68501 10.3945 3.62 10.3695 3.575 10.3195L3 9.74453L3.35 9.39453L3.92501 9.96953Z" fill="#CC2128"/>
<path d="M3.575 8.46953C3.67001 8.36953 3.83001 8.36953 3.92501 8.46953C4.02501 8.56453 4.02501 8.72453 3.92501 8.81953L3.35 9.39453L3 9.04453L3.575 8.46953Z" fill="#CC2128"/>
<path d="M2.6485 9.39453L2.99852 9.04451L3.34854 9.39453L2.99852 9.74455L2.6485 9.39453Z" fill="#CC2128"/>
<path d="M3.25007 3.89453V4.64453C3.25007 4.78453 3.14007 4.89453 3.00006 4.89453C2.86006 4.89453 2.75006 4.78453 2.75006 4.64453V3.89453H3.25007Z" fill="#CC2128"/>
<path d="M2.75006 3.39453H3.25007V3.89453H2.75006V3.39453Z" fill="#CC2128"/>
<path d="M3.25007 2.64453V3.39453H2.75006V2.64453C2.75006 2.50453 2.86006 2.39453 3.00006 2.39453C3.14007 2.39453 3.25007 2.50453 3.25007 2.64453Z" fill="#CC2128"/>
<path d="M3.00006 9.04453L2.65006 9.39453L2.07506 8.81953C1.97506 8.72453 1.97506 8.56453 2.07506 8.46953C2.17006 8.36953 2.33006 8.36953 2.42506 8.46953L3.00006 9.04453Z" fill="#CC2128"/>
<path d="M2.74994 3.39453V3.89453H1.99994C1.85994 3.89453 1.74994 3.78453 1.74994 3.64453C1.74994 3.50453 1.85994 3.39453 1.99994 3.39453H2.74994Z" fill="#CC2128"/>
<path d="M2.42506 10.3195C2.38006 10.3695 2.31506 10.3945 2.25006 10.3945C2.18506 10.3945 2.12006 10.3695 2.07506 10.3195C1.97506 10.2245 1.97506 10.0645 2.07506 9.96953L2.65006 9.39453L3.00006 9.74453L2.42506 10.3195Z" fill="#CC2128"/>
<path d="M0.5 6.14453V6.64455H0.25C0.11 6.64455 0 6.53454 0 6.39454C0 6.25453 0.11 6.14453 0.25 6.14453H0.5Z" fill="#CC2128"/>
<path d="M0 1.64453C0 0.954531 0.56 0.394531 1.25 0.394531H6C5.86 0.394531 5.75 0.504531 5.75 0.644531V0.894531H1.25C0.835 0.894531 0.5 1.22953 0.5 1.64453V6.14453H0.25C0.11 6.14453 0 6.25453 0 6.39453V1.64453Z" fill="#CC2128"/>
<path d="M0.5 11.1445C0.5 11.5595 0.835 11.8945 1.25 11.8945H5.75V12.1445C5.75 12.2845 5.86 12.3945 6 12.3945H1.25C0.56 12.3945 0 11.8345 0 11.1445V6.39453C0 6.53453 0.11 6.64453 0.25 6.64453H0.5V11.1445Z" fill="#CC2128"/>
</g>
<defs>
<clipPath id="clip0">
<rect width="12" height="12" fill="white" transform="translate(0 0.394531)"/>
</clipPath>
</defs>
</svg>
