<svg width="24" height="24" viewBox="0 0 24 24" fill="none" xmlns="http://www.w3.org/2000/svg">
<g clip-path="url(#clip0)">
<path d="M23.4999 11.4986C23.7799 11.4986 23.9999 11.7186 23.9999 11.9986C23.9999 12.2786 23.7799 12.4987 23.4999 12.4987H22.9999V11.4986H23.4999Z" fill="#CC2128" stroke="#CC2128"/>
<path d="M12.4998 11.4986H22.9998V12.4987H12.4998V11.4986Z" fill="#CC2128" stroke="#CC2128"/>
<path d="M21.5 24H12C12.28 24 12.5 23.78 12.5 23.5V23H21.5C22.33 23 23 22.33 23 21.5V12.5H23.5C23.78 12.5 24 12.28 24 12V21.5C24 22.88 22.88 24 21.5 24Z" fill="#CC2128" stroke="#CC2128"/>
<path d="M24 2.49999V12C24 11.72 23.78 11.5 23.5 11.5H23V2.49999C23 1.66999 22.33 0.999992 21.5 0.999992H12.5V0.499992C12.5 0.219992 12.28 -7.62939e-06 12 -7.62939e-06H21.5C22.88 -7.62939e-06 24 1.11999 24 2.49999Z" fill="#CC2128" stroke="#CC2128"/>
<path d="M19.9998 6C20.2798 6 20.4998 6.22 20.4998 6.5C20.4998 6.78 20.2798 7 19.9998 7H15.9998C15.7198 7 15.4998 6.78 15.4998 6.5C15.4998 6.22 15.7198 6 15.9998 6H19.9998Z" fill="#CC2128" stroke="#CC2128"/>
<path d="M19.9998 15.9986C20.2798 15.9986 20.4998 16.2186 20.4998 16.4986C20.4998 16.7786 20.2798 16.9986 19.9998 16.9986H15.9998C15.7198 16.9986 15.4998 16.7786 15.4998 16.4986C15.4998 16.2186 15.7198 15.9986 15.9998 15.9986H19.9998Z" fill="#CC2128" stroke="#CC2128"/>
<path d="M19.9998 18.9986C20.2798 18.9986 20.4998 19.2186 20.4998 19.4986C20.4998 19.7786 20.2798 19.9986 19.9998 19.9986H15.9998C15.7198 19.9986 15.4998 19.7786 15.4998 19.4986C15.4998 19.2186 15.7198 18.9986 15.9998 18.9986H19.9998Z" fill="#CC2128" stroke="#CC2128"/>
<path d="M12.5001 23.0014V23.5014C12.5001 23.7814 12.2801 24.0014 12.0001 24.0014C11.7201 24.0014 11.5001 23.7814 11.5001 23.5014V23.0014H12.5001Z" fill="#CC2128" stroke="#CC2128"/>
<path d="M11.5001 12.5014H12.5001V23.0014H11.5001V12.5014Z" fill="#CC2128" stroke="#CC2128"/>
<path d="M11.5001 11.4986H12.5001V12.4987H11.5001V11.4986Z" fill="#CC2128" stroke="#CC2128"/>
<path d="M11.5001 0.998627H12.5001V11.4986H11.5001V0.998627Z" fill="#CC2128" stroke="#CC2128"/>
<path d="M12.5001 0.499992V0.999992H11.5001V0.499992C11.5001 0.219992 11.7201 -7.62939e-06 12.0001 -7.62939e-06C12.2801 -7.62939e-06 12.5001 0.219992 12.5001 0.499992Z" fill="#CC2128" stroke="#CC2128"/>
<path d="M1.00014 11.4986H11.5001V12.4987H1.00014V11.4986Z" fill="#CC2128" stroke="#CC2128"/>
<path d="M7.99984 6C8.27984 6 8.49984 6.22 8.49984 6.5C8.49984 6.78 8.27984 7 7.99984 7H6.49985V6H7.99984Z" fill="#CC2128" stroke="#CC2128"/>
<path d="M7.85001 19.15C8.05002 19.34 8.05002 19.66 7.85001 19.85C7.76001 19.95 7.63001 20 7.50001 20C7.37001 20 7.24001 19.95 7.15001 19.85L6 18.7L6.70001 18L7.85001 19.15Z" fill="#CC2128" stroke="#CC2128"/>
<path d="M7.15001 16.1486C7.34001 15.9486 7.66001 15.9486 7.85001 16.1486C8.05002 16.3386 8.05002 16.6586 7.85001 16.8486L6.70001 17.9986L6 17.2986L7.15001 16.1486Z" fill="#CC2128" stroke="#CC2128"/>
<path d="M5.29703 17.9991L5.99707 17.2991L6.69711 17.9991L5.99707 18.6992L5.29703 17.9991Z" fill="#CC2128" stroke="#CC2128"/>
<path d="M6.50015 6.99863V8.49863C6.50015 8.77863 6.28015 8.99863 6.00014 8.99863C5.72014 8.99863 5.50014 8.77863 5.50014 8.49863V6.99863H6.50015Z" fill="#CC2128" stroke="#CC2128"/>
<path d="M5.50014 6H6.50015V7H5.50014V6Z" fill="#CC2128" stroke="#CC2128"/>
<path d="M6.50015 4.49863V5.99863H5.50014V4.49863C5.50014 4.21863 5.72014 3.99863 6.00014 3.99863C6.28015 3.99863 6.50015 4.21863 6.50015 4.49863Z" fill="#CC2128" stroke="#CC2128"/>
<path d="M6.00014 17.2986L5.30014 17.9986L4.15014 16.8486C3.95014 16.6586 3.95014 16.3386 4.15014 16.1486C4.34014 15.9486 4.66014 15.9486 4.85014 16.1486L6.00014 17.2986Z" fill="#CC2128" stroke="#CC2128"/>
<path d="M5.49985 6V7H3.99985C3.71985 7 3.49986 6.78 3.49986 6.5C3.49986 6.22 3.71985 6 3.99985 6H5.49985Z" fill="#CC2128" stroke="#CC2128"/>
<path d="M4.85014 19.85C4.76014 19.95 4.63014 20 4.50014 20C4.37014 20 4.24014 19.95 4.15014 19.85C3.95014 19.66 3.95014 19.34 4.15014 19.15L5.30014 18L6.00014 18.7L4.85014 19.85Z" fill="#CC2128" stroke="#CC2128"/>
<path d="M0.999992 11.4986V12.4987H0.499992C0.219992 12.4987 -7.62939e-06 12.2786 -7.62939e-06 11.9986C-7.62939e-06 11.7186 0.219992 11.4986 0.499992 11.4986H0.999992Z" fill="#CC2128" stroke="#CC2128"/>
<path d="M0 2.5C0 1.12 1.12 0 2.5 0H12C11.72 0 11.5 0.22 11.5 0.5V1H2.5C1.67 1 1 1.67 1 2.5V11.5H0.5C0.22 11.5 0 11.72 0 12V2.5Z" fill="#CC2128" stroke="#CC2128"/>
<path d="M0.999992 21.5C0.999992 22.33 1.66999 23 2.49999 23H11.5V23.5C11.5 23.78 11.72 24 12 24H2.49999C1.11999 24 -7.62939e-06 22.88 -7.62939e-06 21.5V12C-7.62939e-06 12.28 0.219992 12.5 0.499992 12.5H0.999992V21.5Z" fill="#CC2128" stroke="#CC2128"/>
</g>
<defs>
<clipPath id="clip0">
<rect width="24" height="24" fill="white"/>
</clipPath>
</defs>
</svg>
