<svg width="32" height="32" viewBox="0 0 32 32" fill="none" xmlns="http://www.w3.org/2000/svg">
<path d="M24 16C19.6 16 16 19.6 16 24C16 28.4 19.6 32 24 32C28.4 32 32 28.4 32 24C32 19.6 28.4 16 24 16ZM27 25H25V27C25 27.6 24.6 28 24 28C23.4 28 23 27.6 23 27V25H21C20.4 25 20 24.6 20 24C20 23.4 20.4 23 21 23H23V21C23 20.4 23.4 20 24 20C24.6 20 25 20.4 25 21V23H27C27.6 23 28 23.4 28 24C28 24.6 27.6 25 27 25Z" fill="#333333"/>
<path d="M8.4 22L9.6 19.7C10.1 18.7 11.1 18 12.3 18H15.8C15.9 18 16 18 16 18C17.8 15.6 20.7 14 24 14C25.2 14 26.3 14.2 27.4 14.6C27 14 26.5 13.4 26 13H27C27.6 13 28 12.6 28 12C28 11.4 27.6 11 27 11H24.2L23 8C22.2 6.2 20.4 5 18.4 5H9.6C7.6 5 5.8 6.2 5 8L3.7 11H1C0.4 11 0 11.4 0 12C0 12.6 0.4 13 1 13H2C0.8 13.9 0 15.4 0 17V21C0 21.9 0.4 22.7 1 23.2V25C1 26.7 2.3 28 4 28H6C7.7 28 9 26.7 9 25V24H14C14 23.3 14.1 22.6 14.2 22H8.4ZM7 19H4C3.4 19 3 18.6 3 18C3 17.4 3.4 17 4 17H7C7.6 17 8 17.4 8 18C8 18.6 7.6 19 7 19ZM5.5 12L6.9 8.8C7.4 7.7 8.4 7 9.6 7H18.3C19.5 7 20.6 7.7 21.1 8.8L22.5 12H5.5Z" fill="#333333"/>
</svg>
