<svg width="48" height="20" viewBox="0 0 48 20" fill="none" xmlns="http://www.w3.org/2000/svg">
<path d="M19.918 7.61523H23.1181V9.21561H19.918V7.61523Z" fill="#CC2128"/>
<path d="M47.2328 5.22431L41.7981 4.44821C40.8072 3.83945 39.7788 3.29449 38.7185 2.81626C35.217 1.23022 31.4166 0.4118 27.5722 0.416032H26.6281C22.0914 0.419287 17.6272 1.55771 13.6425 3.72746L10.8998 5.22366C7.68934 5.25979 4.54068 6.1137 1.75143 7.70365C0.617887 8.35376 -0.0820311 9.5599 -0.0839844 10.8663V15.617C-0.0839844 16.0591 0.274113 16.4171 0.716201 16.4171H3.40258C4.27634 18.9098 7.00537 20.2224 9.49806 19.3487C10.8702 18.8678 11.9487 17.789 12.4296 16.4171H33.8047C34.6785 18.9098 37.4075 20.2224 39.9002 19.3487C41.2721 18.8678 42.3509 17.789 42.8317 16.4171H43.1189C43.2208 16.4171 43.3217 16.3979 43.4164 16.3602L46.0077 15.3204C47.1654 14.862 47.9236 13.7415 47.9193 12.497V6.01636C47.9193 5.61854 47.6267 5.28095 47.2328 5.22431ZM11.0519 15.4571C10.698 17.1887 9.00746 18.3056 7.2759 17.9518C5.54401 17.5979 4.42707 15.9073 4.78093 14.1755C5.13513 12.4439 6.82567 11.3269 8.55724 11.6808C10.0472 11.9852 11.117 13.2962 11.1167 14.8171C11.1167 15.032 11.0948 15.2465 11.0519 15.4571ZM25.5177 14.8171H12.7167C12.7167 12.1659 10.5678 10.0166 7.91657 10.0166C5.26534 10.0166 3.11611 12.1659 3.11611 14.8171H1.51606V10.8663C1.51704 10.1335 1.90964 9.4567 2.54575 9.09274C5.15661 7.60208 8.11059 6.81752 11.1167 6.81654H25.5177V14.8171ZM25.5177 5.2165H14.2546L14.4089 5.13218C17.8294 3.27333 21.6288 2.21954 25.5177 2.05124V5.2165ZM27.1178 2.01608H27.5706C30.7948 2.0125 33.9897 2.62452 36.9843 3.81959L35.5874 5.2165H27.1178V2.01608ZM41.454 15.4571C41.1002 17.1887 39.4096 18.3056 37.6777 17.9518C35.9462 17.5979 34.8292 15.9073 35.1831 14.1755C35.537 12.4439 37.2278 11.3269 38.9594 11.6808C40.4494 11.9852 41.5191 13.2962 41.5188 14.8171C41.5188 15.032 41.497 15.2465 41.454 15.4571ZM46.3193 7.6164H43.9191V9.21678H46.3193V12.497C46.3212 13.0865 45.9618 13.6171 45.4136 13.8336L43.1189 14.7552C43.1189 14.6817 43.1094 14.6088 43.1045 14.5352C43.0997 14.4616 43.098 14.3753 43.0902 14.2953C43.0821 14.2152 43.0661 14.1351 43.0534 14.0553C43.0404 13.9752 43.031 13.8952 43.015 13.8226C42.9991 13.7496 42.9756 13.6689 42.9548 13.5927C42.934 13.5169 42.918 13.4401 42.8939 13.3655C42.8702 13.2913 42.8412 13.22 42.8142 13.1471C42.7868 13.0745 42.7621 12.9993 42.7341 12.927C42.7061 12.8551 42.6683 12.7896 42.6348 12.7216C42.6013 12.6535 42.5684 12.579 42.5309 12.5103C42.4932 12.4416 42.4509 12.383 42.4147 12.3192C42.3789 12.2551 42.335 12.1822 42.2894 12.1167C42.2435 12.051 42.2012 11.9992 42.1572 11.9399C42.1133 11.8807 42.0635 11.811 42.0123 11.7495C41.9612 11.688 41.9134 11.6398 41.8636 11.5893C41.8141 11.5392 41.7587 11.4712 41.7037 11.4152C41.6484 11.3592 41.594 11.3149 41.539 11.2654C41.4837 11.2159 41.4244 11.1573 41.3635 11.1053C41.303 11.0535 41.2411 11.0135 41.1806 10.9679C41.1197 10.9223 41.0588 10.8735 40.995 10.8308C40.9309 10.7885 40.8589 10.7511 40.7903 10.7061C40.7212 10.6612 40.6652 10.6261 40.6005 10.5919C40.5357 10.5574 40.4549 10.5212 40.3814 10.4861C40.3078 10.4509 40.2502 10.4197 40.1821 10.391C40.1141 10.362 40.022 10.3318 39.9422 10.3031C39.8621 10.2741 39.81 10.2517 39.742 10.2302C39.6509 10.2022 39.5574 10.182 39.4643 10.1589C39.4034 10.1446 39.3452 10.1254 39.2836 10.1127C39.1853 10.0925 39.0844 10.0814 38.9845 10.0668C38.9252 10.059 38.8686 10.0459 38.8093 10.0404C38.6492 10.0245 38.4893 10.0157 38.3213 10.0157C35.6711 10.0183 33.5235 12.1659 33.5209 14.8161H27.1181V6.81622H35.9185C36.1308 6.81622 36.3342 6.7319 36.484 6.58183L38.5587 4.50714C39.4295 4.92155 40.2762 5.3848 41.095 5.8946C41.1894 5.95353 41.2948 5.99227 41.4052 6.00822L46.3193 6.70977V7.6164Z" fill="#CC2128"/>
</svg>
