<svg width="32" height="29" viewBox="0 0 32 29" fill="none" xmlns="http://www.w3.org/2000/svg">
<path d="M24.463 12.0786C24.4622 12.0727 24.4618 12.0666 24.4609 12.0608C24.4567 12.0314 24.4512 12.0022 24.4433 11.9733L24.443 11.9723C24.4356 11.9453 24.4262 11.9187 24.4155 11.8923C24.4125 11.8848 24.4092 11.8775 24.4059 11.8701C24.3975 11.8511 24.3882 11.8324 24.378 11.8139C24.3736 11.8059 24.3693 11.7978 24.3646 11.7899C24.362 11.7856 24.36 11.7812 24.3573 11.7769C24.3466 11.7598 24.3349 11.7438 24.323 11.7279C24.3208 11.7249 24.319 11.7218 24.3167 11.7189C24.2986 11.6954 24.2791 11.6735 24.2586 11.6528C24.2547 11.6489 24.2505 11.6453 24.2466 11.6415C24.2287 11.6243 24.2103 11.6082 24.191 11.593C24.1861 11.5892 24.1813 11.5853 24.1763 11.5816C24.1505 11.5625 24.1239 11.5446 24.0962 11.5291L13.4302 5.44962L19.5713 1.57191L29.8668 7.44009L25.5308 10.178C25.1924 10.3915 25.0909 10.8398 25.3039 11.1791C25.5169 11.5184 25.9639 11.6202 26.3023 11.4066L31.6616 8.02261C31.8771 7.88664 32.0054 7.64714 31.9996 7.39189C31.9939 7.13664 31.855 6.90331 31.6336 6.77713L19.91 0.094843C19.6781 -0.0374292 19.3924 -0.0308954 19.1665 0.111613L11.6403 4.8639C11.6388 4.86485 11.6372 4.86586 11.6357 4.86681L7.87484 7.24154C7.87311 7.24263 7.87137 7.24372 7.8697 7.24481L0.338394 12.0004C0.122939 12.1363 -0.00542245 12.3758 0.00036936 12.6311C0.00608877 12.8863 0.14502 13.1197 0.366412 13.2458L12.0901 19.9281C12.2011 19.9915 12.3245 20.023 12.4478 20.023C12.5819 20.023 12.7159 19.9856 12.8335 19.9114L18.1928 16.5273C18.5312 16.3137 18.6328 15.8654 18.4197 15.5262C18.2068 15.1869 17.7597 15.0849 17.4213 15.2987L12.4287 18.4511L2.13328 12.5828L8.27448 8.70503L19.255 14.9638V23.2531C19.255 23.5175 19.3983 23.7609 19.6291 23.8887C19.7382 23.9491 19.8587 23.9791 19.979 23.9791C20.1132 23.9791 20.2472 23.9417 20.3647 23.8674L24.1304 21.4896C24.341 21.3567 24.4687 21.1248 24.4687 20.8753V12.1636C24.4687 12.1594 24.4679 12.1553 24.4678 12.151C24.4674 12.1269 24.4658 12.1028 24.463 12.0786ZM20.703 21.9381V14.5415C20.703 14.2804 20.5631 14.0394 20.3367 13.9104L9.66451 7.8274L12.0401 6.32732L22.3355 12.1956L21.4341 12.7647C21.0957 12.9783 20.9941 13.4266 21.2072 13.7659C21.3447 13.9851 21.5799 14.1051 21.8205 14.1051C21.9523 14.1051 22.0858 14.069 22.2055 13.9934L23.0206 13.4787V20.4746L20.703 21.9381Z" fill="#CC2128"/>
<path d="M30.8902 9.6978L25.5309 13.0818C25.1925 13.2954 25.0909 13.7436 25.304 14.0829C25.4416 14.3021 25.6768 14.4221 25.9173 14.4221C26.0491 14.4221 26.1826 14.3861 26.3024 14.3104L31.6617 10.9264C32.0001 10.7129 32.1016 10.2646 31.8886 9.92532C31.6756 9.586 31.2285 9.48407 30.8902 9.6978Z" fill="#CC2128"/>
<path d="M17.4213 18.2025L12.4287 21.355L1.08185 14.8875C0.734481 14.6894 0.292277 14.8111 0.0947035 15.1599C-0.10287 15.5084 0.0186859 15.9516 0.366339 16.1497L12.09 22.832C12.201 22.8954 12.3244 22.9269 12.4477 22.9269C12.5818 22.9269 12.7158 22.8895 12.8334 22.8153L18.1927 19.4312C18.5311 19.2176 18.6327 18.7693 18.4196 18.4301C18.2067 18.0907 17.7596 17.9888 17.4213 18.2025Z" fill="#CC2128"/>
<path d="M30.8902 12.6017L25.5309 15.9857C25.1925 16.1992 25.0909 16.6475 25.304 16.9868C25.4416 17.206 25.6768 17.326 25.9173 17.326C26.0491 17.326 26.1826 17.2899 26.3024 17.2143L31.6617 13.8303C32.0001 13.6167 32.1016 13.1685 31.8886 12.8292C31.6756 12.4898 31.2285 12.388 30.8902 12.6017Z" fill="#CC2128"/>
<path d="M17.4213 21.1064L12.4287 24.2589L1.08185 17.7914C0.734481 17.5933 0.292277 17.715 0.0947035 18.0638C-0.10287 18.4123 0.0186859 18.8555 0.366339 19.0536L12.09 25.7359C12.201 25.7993 12.3244 25.8308 12.4477 25.8308C12.5818 25.8308 12.7158 25.7934 12.8334 25.7191L18.1927 22.3351C18.5311 22.1215 18.6327 21.6732 18.4196 21.334C18.2067 20.9945 17.7596 20.8927 17.4213 21.1064Z" fill="#CC2128"/>
<path d="M30.8902 15.5056L25.5309 18.8896C25.1925 19.1031 25.0909 19.5514 25.304 19.8907C25.4416 20.1099 25.6768 20.2299 25.9173 20.2299C26.0491 20.2299 26.1826 20.1938 26.3024 20.1182L31.6617 16.7342C32.0001 16.5206 32.1016 16.0723 31.8886 15.7331C31.6756 15.3938 31.2285 15.2919 30.8902 15.5056Z" fill="#CC2128"/>
<path d="M17.4213 24.0103L12.4287 27.1627L1.08185 20.6953C0.734481 20.4972 0.292277 20.6189 0.0947035 20.9677C-0.10287 21.3162 0.0186859 21.7594 0.366339 21.9575L12.09 28.6398C12.201 28.7032 12.3244 28.7347 12.4477 28.7347C12.5818 28.7347 12.7158 28.6973 12.8334 28.623L18.1927 25.239C18.5311 25.0254 18.6327 24.5771 18.4196 24.2379C18.2067 23.8985 17.7596 23.7966 17.4213 24.0103Z" fill="#CC2128"/>
</svg>
