<svg width="24" height="24" viewBox="0 0 24 24" fill="none" xmlns="http://www.w3.org/2000/svg">
<g id="Iconly/Bulk/Scan">
<g id="Scan">
<path id="Combined Shape" opacity="0.4" fill-rule="evenodd" clip-rule="evenodd" d="M3.74722 14.8113C3.33438 14.8113 3 15.1523 3 15.5723V15.5733L3.00098 17.2023C3.00294 19.3933 4.75331 21.1763 6.90279 21.1763H8.76201C9.17386 21.1763 9.50923 20.8353 9.50923 20.4153C9.50923 19.9953 9.17386 19.6533 8.76201 19.6533H6.90279C5.57604 19.6533 4.4964 18.5533 4.49444 17.2013L4.49345 15.5723C4.49345 15.1513 4.15907 14.8113 3.74722 14.8113ZM3.00029 6.80637V8.39937C3.00029 8.81937 3.33468 9.16037 3.74751 9.16037C4.15936 9.16037 4.49277 8.81937 4.49277 8.39937V6.80637C4.49277 5.44937 5.57535 4.34537 6.90603 4.34537H8.7623C9.17415 4.34537 9.50952 4.00437 9.50952 3.58437C9.50952 3.16337 9.17415 2.82337 8.7623 2.82337H6.90603C4.75165 2.82337 3.00029 4.60937 3.00029 6.80637ZM6.74266 14.7615V9.23747C6.74266 8.63247 6.98094 8.05147 7.40554 7.62847C7.83407 7.20247 8.40968 6.96647 9.00883 6.96747H10.2542C10.4003 6.97247 10.5189 7.09147 10.5229 7.24047V16.7605C10.518 16.9085 10.3993 17.0275 10.2542 17.0305H9.00883C7.76837 17.0415 6.75541 16.0255 6.74266 14.7615Z" fill="#CC2128"/>
<path id="Fill 7" d="M12.0413 1.761V22.238C12.0413 22.658 12.3756 23 12.7885 23C13.2003 23 13.5337 22.658 13.5337 22.238V21.177H17.0972C19.2467 21.177 20.9971 19.393 20.999 17.202L21 15.573V15.573C21 15.152 20.6656 14.812 20.2528 14.811C19.841 14.811 19.5066 15.152 19.5066 15.572L19.5056 17.2C19.5036 18.553 18.424 19.654 17.0972 19.654H13.5337V17.031H14.5251C15.7656 17.041 16.7795 16.026 16.7913 14.762V9.238C16.7795 7.973 15.7656 6.958 14.5251 6.968H13.5337V4.345H17.0933C18.425 4.345 19.5066 5.449 19.5066 6.806V8.399C19.5066 8.82 19.841 9.161 20.2528 9.161C20.6656 9.161 21 8.82 21 8.399V6.806C21 4.61 19.2487 2.823 17.0933 2.823H13.5337V1.761C13.5337 1.341 13.2003 1 12.7885 1C12.3756 1 12.0413 1.341 12.0413 1.761" fill="#CC2128"/>
</g>
</g>
</svg>
