<svg width="24" height="24" viewBox="0 0 24 24" fill="none" xmlns="http://www.w3.org/2000/svg">
<g clip-path="url(#clip0)">
<path d="M23.4999 11.4985C23.7799 11.4985 23.9999 11.7185 23.9999 11.9985C23.9999 12.2786 23.7799 12.4986 23.4999 12.4986H22.9999V11.4985H23.4999Z" fill="#CC2128" stroke="#CC2128" stroke-width="0.5"/>
<path d="M12.4999 11.4985H22.9999V12.4986H12.4999V11.4985Z" fill="#CC2128" stroke="#CC2128" stroke-width="0.5"/>
<path d="M21.5 24H12C12.28 24 12.5 23.78 12.5 23.5V23H21.5C22.33 23 23 22.33 23 21.5V12.5H23.5C23.78 12.5 24 12.28 24 12V21.5C24 22.88 22.88 24 21.5 24Z" fill="#CC2128" stroke="#CC2128" stroke-width="0.5"/>
<path d="M24 2.5V12C24 11.72 23.78 11.5 23.5 11.5H23V2.5C23 1.67 22.33 1 21.5 1H12.5V0.5C12.5 0.22 12.28 0 12 0H21.5C22.88 0 24 1.12 24 2.5Z" fill="#CC2128" stroke="#CC2128" stroke-width="0.5"/>
<path d="M19.9999 6C20.2798 6 20.4998 6.22 20.4998 6.5C20.4998 6.78 20.2798 7 19.9999 7H15.9999C15.7199 7 15.4999 6.78 15.4999 6.5C15.4999 6.22 15.7199 6 15.9999 6H19.9999Z" fill="#CC2128" stroke="#CC2128" stroke-width="0.5"/>
<path d="M19.9999 15.9985C20.2798 15.9985 20.4998 16.2185 20.4998 16.4985C20.4998 16.7785 20.2798 16.9985 19.9999 16.9985H15.9999C15.7199 16.9985 15.4999 16.7785 15.4999 16.4985C15.4999 16.2185 15.7199 15.9985 15.9999 15.9985H19.9999Z" fill="#CC2128" stroke="#CC2128" stroke-width="0.5"/>
<path d="M19.9999 18.9985C20.2798 18.9985 20.4998 19.2185 20.4998 19.4985C20.4998 19.7785 20.2798 19.9985 19.9999 19.9985H15.9999C15.7199 19.9985 15.4999 19.7785 15.4999 19.4985C15.4999 19.2185 15.7199 18.9985 15.9999 18.9985H19.9999Z" fill="#CC2128" stroke="#CC2128" stroke-width="0.5"/>
<path d="M12.5001 23.0015V23.5015C12.5001 23.7815 12.2801 24.0015 12.0001 24.0015C11.7201 24.0015 11.5001 23.7815 11.5001 23.5015V23.0015H12.5001Z" fill="#CC2128" stroke="#CC2128" stroke-width="0.5"/>
<path d="M11.5001 12.5015H12.5001V23.0015H11.5001V12.5015Z" fill="#CC2128" stroke="#CC2128" stroke-width="0.5"/>
<path d="M11.5001 11.4985H12.5001V12.4986H11.5001V11.4985Z" fill="#CC2128" stroke="#CC2128" stroke-width="0.5"/>
<path d="M11.5001 0.998535H12.5001V11.4985H11.5001V0.998535Z" fill="#CC2128" stroke="#CC2128" stroke-width="0.5"/>
<path d="M12.5001 0.5V1H11.5001V0.5C11.5001 0.22 11.7201 0 12.0001 0C12.2801 0 12.5001 0.22 12.5001 0.5Z" fill="#CC2128" stroke="#CC2128" stroke-width="0.5"/>
<path d="M1.00012 11.4985H11.5001V12.4986H1.00012V11.4985Z" fill="#CC2128" stroke="#CC2128" stroke-width="0.5"/>
<path d="M7.99987 6C8.27987 6 8.49987 6.22 8.49987 6.5C8.49987 6.78 8.27987 7 7.99987 7H6.49988V6H7.99987Z" fill="#CC2128" stroke="#CC2128" stroke-width="0.5"/>
<path d="M7.85001 19.15C8.05002 19.34 8.05002 19.66 7.85001 19.85C7.76001 19.95 7.63001 20 7.50001 20C7.37001 20 7.24001 19.95 7.15001 19.85L6 18.7L6.70001 18L7.85001 19.15Z" fill="#CC2128" stroke="#CC2128" stroke-width="0.5"/>
<path d="M7.15001 16.1485C7.34001 15.9485 7.66001 15.9485 7.85001 16.1485C8.05002 16.3385 8.05002 16.6585 7.85001 16.8485L6.70001 17.9985L6 17.2985L7.15001 16.1485Z" fill="#CC2128" stroke="#CC2128" stroke-width="0.5"/>
<path d="M5.297 17.999L5.99704 17.299L6.69707 17.999L5.99704 18.6991L5.297 17.999Z" fill="#CC2128" stroke="#CC2128" stroke-width="0.5"/>
<path d="M6.50013 6.99854V8.49854C6.50013 8.77854 6.28013 8.99854 6.00013 8.99854C5.72012 8.99854 5.50012 8.77854 5.50012 8.49854V6.99854H6.50013Z" fill="#CC2128" stroke="#CC2128" stroke-width="0.5"/>
<path d="M5.50012 6H6.50013V7H5.50012V6Z" fill="#CC2128" stroke="#CC2128" stroke-width="0.5"/>
<path d="M6.50013 4.49854V5.99854H5.50012V4.49854C5.50012 4.21854 5.72012 3.99854 6.00013 3.99854C6.28013 3.99854 6.50013 4.21854 6.50013 4.49854Z" fill="#CC2128" stroke="#CC2128" stroke-width="0.5"/>
<path d="M6.00012 17.2985L5.30012 17.9985L4.15012 16.8485C3.95012 16.6585 3.95012 16.3385 4.15012 16.1485C4.34012 15.9485 4.66012 15.9485 4.85012 16.1485L6.00012 17.2985Z" fill="#CC2128" stroke="#CC2128" stroke-width="0.5"/>
<path d="M5.49987 6V7H3.99988C3.71988 7 3.49988 6.78 3.49988 6.5C3.49988 6.22 3.71988 6 3.99988 6H5.49987Z" fill="#CC2128" stroke="#CC2128" stroke-width="0.5"/>
<path d="M4.85012 19.85C4.76012 19.95 4.63012 20 4.50012 20C4.37012 20 4.24012 19.95 4.15012 19.85C3.95012 19.66 3.95012 19.34 4.15012 19.15L5.30012 18L6.00012 18.7L4.85012 19.85Z" fill="#CC2128" stroke="#CC2128" stroke-width="0.5"/>
<path d="M1 11.4985V12.4986H0.5C0.22 12.4986 0 12.2786 0 11.9985C0 11.7185 0.22 11.4985 0.5 11.4985H1Z" fill="#CC2128" stroke="#CC2128" stroke-width="0.5"/>
<path d="M0 2.5C0 1.12 1.12 0 2.5 0H12C11.72 0 11.5 0.22 11.5 0.5V1H2.5C1.67 1 1 1.67 1 2.5V11.5H0.5C0.22 11.5 0 11.72 0 12V2.5Z" fill="#CC2128" stroke="#CC2128" stroke-width="0.5"/>
<path d="M1 21.5C1 22.33 1.67 23 2.5 23H11.5V23.5C11.5 23.78 11.72 24 12 24H2.5C1.12 24 0 22.88 0 21.5V12C0 12.28 0.22 12.5 0.5 12.5H1V21.5Z" fill="#CC2128" stroke="#CC2128" stroke-width="0.5"/>
</g>
<defs>
<clipPath id="clip0">
<rect width="24" height="24" fill="white"/>
</clipPath>
</defs>
</svg>
