<svg width="32" height="32" viewBox="0 0 32 32" fill="none" xmlns="http://www.w3.org/2000/svg">
<path d="M8.19181 5.80813C8.07563 5.69188 7.91438 5.625 7.75 5.625C7.58562 5.625 7.42438 5.69188 7.30813 5.80813C7.19188 5.92438 7.125 6.08562 7.125 6.25C7.125 6.41438 7.19181 6.57562 7.30813 6.69187C7.42444 6.80812 7.58562 6.875 7.75 6.875C7.91438 6.875 8.07563 6.80812 8.19181 6.69187C8.30806 6.57562 8.375 6.41438 8.375 6.25C8.375 6.08562 8.30813 5.92438 8.19181 5.80813Z" fill="#CC2128"/>
<path d="M31.375 5.625H10.2292C9.88406 5.625 9.60419 5.90481 9.60419 6.25C9.60419 6.59519 9.88406 6.875 10.2292 6.875H30.75V25.125H1.25V6.875H5.3125C5.65762 6.875 5.9375 6.59519 5.9375 6.25C5.9375 5.90481 5.65762 5.625 5.3125 5.625H0.625C0.279875 5.625 0 5.90481 0 6.25V25.75C0 26.0951 0.279875 26.375 0.625 26.375H31.375C31.7201 26.375 32 26.0951 32 25.75V6.25C32 5.90481 31.7201 5.625 31.375 5.625Z" fill="#CC2128"/>
<path d="M14.75 11.7588H13.0147C13.165 11.4574 13.25 11.1179 13.25 10.7588C13.25 9.5181 12.2407 8.50879 11 8.50879C10.3616 8.50879 9.78488 8.77648 9.375 9.20498C8.96512 8.77648 8.38837 8.50879 7.75 8.50879C6.50931 8.50879 5.5 9.5181 5.5 10.7588C5.5 11.1179 5.585 11.4573 5.73525 11.7588H4C3.65488 11.7588 3.375 12.0386 3.375 12.3838V16.1338C3.375 16.4789 3.65488 16.7588 4 16.7588V20.3838C4 21.4177 4.84113 22.2588 5.875 22.2588H12.875C13.9089 22.2588 14.75 21.4177 14.75 20.3838V16.7588C15.0951 16.7588 15.375 16.4789 15.375 16.1338V12.3838C15.375 12.0386 15.0951 11.7588 14.75 11.7588ZM7.25 21.0088H5.875C5.53038 21.0088 5.25 20.7284 5.25 20.3838V16.7588H7.25V21.0088ZM7.25 15.5088H4.625V13.0088H7.25V15.5088ZM6.75 10.7588C6.75 10.2074 7.19863 9.75879 7.75 9.75879C8.30137 9.75879 8.75 10.2074 8.75 10.7588V11.7588H7.75C7.19863 11.7588 6.75 11.3102 6.75 10.7588ZM10.25 16.1338V21.0088H8.5V16.1338V13.0088H10.25V16.1338ZM10 11.7588V10.7588C10 10.2074 10.4486 9.75879 11 9.75879C11.5514 9.75879 12 10.2074 12 10.7588C12 11.3102 11.5514 11.7588 11 11.7588H10ZM13.5 20.3838C13.5 20.7284 13.2196 21.0088 12.875 21.0088H11.5V16.7588H13.5V20.3838ZM14.125 15.5088H11.5V13.0088H14.125V15.5088Z" fill="#CC2128"/>
<path d="M25.0201 9.49154C24.7195 9.32179 24.3383 9.42785 24.1686 9.72854L20.808 15.6813C20.6383 15.982 20.7444 16.3632 21.045 16.5328C21.1422 16.5877 21.2476 16.6137 21.3517 16.6137C21.5698 16.6137 21.7817 16.4993 21.8965 16.2958L25.2571 10.343C25.4268 10.0424 25.3207 9.66123 25.0201 9.49154Z" fill="#CC2128"/>
<path d="M25.5768 13.2209C24.5429 13.2209 23.7018 14.0621 23.7018 15.0959C23.7018 16.1298 24.5429 16.9709 25.5768 16.9709C26.6107 16.9709 27.4518 16.1298 27.4518 15.0959C27.4518 14.0621 26.6107 13.2209 25.5768 13.2209ZM25.5768 15.7209C25.2322 15.7209 24.9518 15.4406 24.9518 15.0959C24.9518 14.7513 25.2322 14.4709 25.5768 14.4709C25.9214 14.4709 26.2018 14.7513 26.2018 15.0959C26.2018 15.4406 25.9214 15.7209 25.5768 15.7209Z" fill="#CC2128"/>
<path d="M21.2092 8.40381C20.1754 8.40381 19.3342 9.24493 19.3342 10.2788C19.3342 11.3127 20.1754 12.1538 21.2092 12.1538C22.2431 12.1538 23.0842 11.3127 23.0842 10.2788C23.0842 9.24493 22.2431 8.40381 21.2092 8.40381ZM21.2092 10.9038C20.8646 10.9038 20.5842 10.6234 20.5842 10.2788C20.5842 9.93418 20.8646 9.65381 21.2092 9.65381C21.5539 9.65381 21.8342 9.93418 21.8342 10.2788C21.8342 10.6234 21.5538 10.9038 21.2092 10.9038Z" fill="#CC2128"/>
<path d="M28 18.625H18.7859C18.4408 18.625 18.1609 18.9049 18.1609 19.25C18.1609 19.5951 18.4408 19.875 18.7859 19.875H28C28.3451 19.875 28.625 19.5951 28.625 19.25C28.625 18.9049 28.3451 18.625 28 18.625Z" fill="#CC2128"/>
<path d="M23.393 21.2686H18.7859C18.4408 21.2686 18.1609 21.5484 18.1609 21.8936C18.1609 22.2387 18.4408 22.5186 18.7859 22.5186H23.393C23.7381 22.5186 24.018 22.2387 24.018 21.8936C24.018 21.5484 23.7381 21.2686 23.393 21.2686Z" fill="#CC2128"/>
<path d="M26.138 21.4517C26.0218 21.3355 25.8605 21.2686 25.6962 21.2686C25.5318 21.2686 25.3712 21.3355 25.2543 21.4517C25.1381 21.5679 25.0712 21.7286 25.0712 21.8936C25.0712 22.0579 25.138 22.2192 25.2543 22.3354C25.3712 22.4516 25.5318 22.5186 25.6962 22.5186C25.8605 22.5186 26.0218 22.4517 26.138 22.3354C26.2549 22.2192 26.3212 22.0579 26.3212 21.8936C26.3212 21.7292 26.2549 21.5679 26.138 21.4517Z" fill="#CC2128"/>
</svg>
