<svg width="20" height="20" viewBox="0 0 20 20" fill="none" xmlns="http://www.w3.org/2000/svg">
<path d="M3.99524 5.87988C3.99524 4.83905 4.8394 3.99488 5.8794 3.99488H6.7369C7.23357 3.99488 7.71107 3.79822 8.0644 3.44738L8.66357 2.84738C9.39774 2.10988 10.5911 2.10655 11.3286 2.84072L11.3361 2.84738L11.9361 3.44738C12.2886 3.79822 12.7661 3.99488 13.2636 3.99488H14.1202C15.1611 3.99488 16.0052 4.83905 16.0052 5.87988V6.73572C16.0052 7.23405 16.2019 7.71072 16.5527 8.06405L17.1527 8.66405C17.8902 9.39822 17.8944 10.5907 17.1602 11.329L17.1527 11.3365L16.5527 11.9366C16.2019 12.2882 16.0052 12.7666 16.0052 13.2632V14.1207C16.0052 15.1616 15.1611 16.0049 14.1202 16.0049H13.2636C12.7661 16.0049 12.2886 16.2024 11.9361 16.5532L11.3361 17.1524C10.6027 17.8907 9.4094 17.8941 8.67107 17.1599C8.66857 17.1574 8.66607 17.1549 8.66357 17.1524L8.0644 16.5532C7.71107 16.2024 7.23357 16.0049 6.7369 16.0049H5.8794C4.8394 16.0049 3.99524 15.1616 3.99524 14.1207V13.2632C3.99524 12.7666 3.79774 12.2882 3.4469 11.9366L2.84774 11.3365C2.1094 10.6024 2.10607 9.40905 2.84024 8.67155L2.84774 8.66405L3.4469 8.06405C3.79774 7.71072 3.99524 7.23405 3.99524 6.73572V5.87988" stroke="white" stroke-width="1.5" stroke-linecap="round" stroke-linejoin="round"/>
<path d="M7.85833 12.1413L12.1417 7.85796" stroke="white" stroke-width="1.5" stroke-linecap="round" stroke-linejoin="round"/>
<path d="M12.1389 12.7687C11.9722 12.7687 11.8139 12.7021 11.6972 12.5854C11.6389 12.5271 11.5972 12.4521 11.5639 12.3771C11.5306 12.3021 11.5139 12.2279 11.5139 12.1437C11.5139 12.0604 11.5306 11.9771 11.5639 11.9021C11.5972 11.8271 11.6389 11.7604 11.6972 11.7021C11.9306 11.4687 12.3472 11.4687 12.5806 11.7021C12.6389 11.7604 12.6889 11.8271 12.7222 11.9021C12.7472 11.9771 12.7639 12.0604 12.7639 12.1437C12.7639 12.2279 12.7472 12.3021 12.7222 12.3771C12.6889 12.4521 12.6389 12.5271 12.5806 12.5854C12.4639 12.7021 12.3056 12.7687 12.1389 12.7687Z" fill="white"/>
<path d="M7.85547 8.48569C7.77214 8.48569 7.69714 8.46819 7.62214 8.43486C7.54714 8.40153 7.47214 8.36069 7.41381 8.30236C7.35547 8.23569 7.31381 8.16903 7.28047 8.09403C7.24714 8.01819 7.23047 7.94403 7.23047 7.86069C7.23047 7.77653 7.24714 7.69403 7.28047 7.61903C7.31381 7.54403 7.35547 7.46903 7.41381 7.41903C7.65547 7.18486 8.06381 7.18486 8.29714 7.41903C8.41381 7.53486 8.48047 7.69403 8.48047 7.86069C8.48047 7.94403 8.47214 8.01819 8.43881 8.09403C8.40547 8.16903 8.35547 8.23569 8.29714 8.30236C8.23881 8.36069 8.17214 8.40153 8.09714 8.43486C8.02214 8.46819 7.93881 8.48569 7.85547 8.48569Z" fill="white"/>
</svg>
