<svg width="20" height="20" viewBox="0 0 20 20" fill="none" xmlns="http://www.w3.org/2000/svg">
<path d="M2.79432 5.05587C2.79432 3.80687 3.80732 2.79387 5.05532 2.79387H6.08432C6.68032 2.79387 7.25332 2.55787 7.67732 2.13687L8.39632 1.41687C9.27732 0.531868 10.7093 0.527868 11.5943 1.40887L11.6033 1.41687L12.3233 2.13687C12.7463 2.55787 13.3193 2.79387 13.9163 2.79387H14.9443C16.1933 2.79387 17.2063 3.80687 17.2063 5.05587V6.08287C17.2063 6.68087 17.4423 7.25287 17.8633 7.67687L18.5833 8.39687C19.4683 9.27787 19.4733 10.7089 18.5923 11.5949L18.5833 11.6039L17.8633 12.3239C17.4423 12.7459 17.2063 13.3199 17.2063 13.9159V14.9449C17.2063 16.1939 16.1933 17.2059 14.9443 17.2059H13.9163C13.3193 17.2059 12.7463 17.4429 12.3233 17.8639L11.6033 18.5829C10.7233 19.4689 9.29132 19.4729 8.40532 18.5919C8.40232 18.5889 8.39932 18.5859 8.39632 18.5829L7.67732 17.8639C7.25332 17.4429 6.68032 17.2059 6.08432 17.2059H5.05532C3.80732 17.2059 2.79432 16.1939 2.79432 14.9449V13.9159C2.79432 13.3199 2.55732 12.7459 2.13632 12.3239L1.41732 11.6039C0.531317 10.7229 0.527317 9.29087 1.40832 8.40587L1.41732 8.39687L2.13632 7.67687C2.55732 7.25287 2.79432 6.68087 2.79432 6.08287V5.05587" stroke="#CC2128" stroke-width="1.5" stroke-linecap="round" stroke-linejoin="round"/>
<path opacity="0.4" d="M7.43005 12.5696L12.5701 7.42957" stroke="#CC2128" stroke-width="1.5" stroke-linecap="round" stroke-linejoin="round"/>
<path opacity="0.4" d="M12.5667 13.3225C12.3667 13.3225 12.1767 13.2425 12.0367 13.1025C11.9667 13.0325 11.9167 12.9425 11.8767 12.8525C11.8367 12.7625 11.8167 12.6735 11.8167 12.5725C11.8167 12.4725 11.8367 12.3725 11.8767 12.2825C11.9167 12.1925 11.9667 12.1125 12.0367 12.0425C12.3167 11.7625 12.8167 11.7625 13.0967 12.0425C13.1667 12.1125 13.2267 12.1925 13.2667 12.2825C13.2967 12.3725 13.3167 12.4725 13.3167 12.5725C13.3167 12.6735 13.2967 12.7625 13.2667 12.8525C13.2267 12.9425 13.1667 13.0325 13.0967 13.1025C12.9567 13.2425 12.7667 13.3225 12.5667 13.3225Z" fill="#CC2128"/>
<path opacity="0.4" d="M7.42657 8.18277C7.32657 8.18277 7.23657 8.16177 7.14657 8.12177C7.05657 8.08177 6.96657 8.03277 6.89657 7.96277C6.82657 7.88277 6.77657 7.80277 6.73657 7.71277C6.69657 7.62177 6.67657 7.53277 6.67657 7.43277C6.67657 7.33177 6.69657 7.23277 6.73657 7.14277C6.77657 7.05277 6.82657 6.96277 6.89657 6.90277C7.18657 6.62177 7.67657 6.62177 7.95657 6.90277C8.09657 7.04177 8.17657 7.23277 8.17657 7.43277C8.17657 7.53277 8.16657 7.62177 8.12657 7.71277C8.08657 7.80277 8.02657 7.88277 7.95657 7.96277C7.88657 8.03277 7.80657 8.08177 7.71657 8.12177C7.62657 8.16177 7.52657 8.18277 7.42657 8.18277Z" fill="#CC2128"/>
</svg>
