<svg width="17" height="17" viewBox="0 0 17 17" fill="none" xmlns="http://www.w3.org/2000/svg">
<g clip-path="url(#clip0)">
<path d="M3.23 5.81H4.08C4.41774 5.80736 4.74075 5.67134 4.97864 5.43158C5.21653 5.19182 5.35001 4.86775 5.35 4.53V3.39H6.68C6.6309 3.2314 6.60728 3.06601 6.61 2.9C6.60794 2.73404 6.63155 2.56875 6.68 2.41H5.35V1.28C5.35132 1.11238 5.31944 0.94616 5.25621 0.790921C5.19298 0.635681 5.09964 0.494495 4.98158 0.375503C4.86352 0.256511 4.72307 0.162069 4.56833 0.0976206C4.41359 0.0331727 4.24762 -5.19581e-06 4.08 6.10314e-10L3.23 6.10314e-10C2.89926 0.0129292 2.58639 0.153473 2.35706 0.392132C2.12772 0.630792 1.99975 0.949011 2 1.28V4.53C1.99975 4.86099 2.12772 5.17921 2.35706 5.41787C2.58639 5.65653 2.89926 5.79707 3.23 5.81Z" fill="#686868"/>
<path d="M8.38003 2.11011C8.27628 2.11011 8.17355 2.13054 8.07771 2.17024C7.98186 2.20994 7.89477 2.26813 7.82141 2.34149C7.74805 2.41485 7.68986 2.50194 7.65016 2.59779C7.61046 2.69363 7.59003 2.79636 7.59003 2.90011C7.59003 3.00385 7.61046 3.10658 7.65016 3.20243C7.68986 3.29827 7.74805 3.38536 7.82141 3.45872C7.89477 3.53208 7.98186 3.59027 8.07771 3.62997C8.17355 3.66967 8.27628 3.69011 8.38003 3.69011C8.48377 3.69011 8.5865 3.66967 8.68235 3.62997C8.77819 3.59027 8.86528 3.53208 8.93864 3.45872C9.012 3.38536 9.07019 3.29827 9.10989 3.20243C9.14959 3.10658 9.17003 3.00385 9.17003 2.90011C9.17003 2.79636 9.14959 2.69363 9.10989 2.59779C9.07019 2.50194 9.012 2.41485 8.93864 2.34149C8.86528 2.26813 8.77819 2.20994 8.68235 2.17024C8.5865 2.13054 8.48377 2.11011 8.38003 2.11011Z" fill="#686868"/>
<path d="M8.38003 14.6501C8.58955 14.6501 8.79049 14.5668 8.93864 14.4187C9.08679 14.2705 9.17003 14.0696 9.17003 13.8601C9.17003 13.6505 9.08679 13.4496 8.93864 13.3015C8.79049 13.1533 8.58955 13.0701 8.38003 13.0701C8.17051 13.0701 7.96957 13.1533 7.82141 13.3015C7.67326 13.4496 7.59003 13.6505 7.59003 13.8601C7.59003 14.0696 7.67326 14.2705 7.82141 14.4187C7.96957 14.5668 8.17051 14.6501 8.38003 14.6501Z" fill="#686868"/>
<path d="M8.38001 4.68011C8.21441 4.67715 8.04982 4.65364 7.89001 4.61011V12.1601C8.04876 12.1117 8.21405 12.088 8.38001 12.0901C8.54602 12.0874 8.71141 12.111 8.87001 12.1601V4.61011C8.71036 4.65438 8.54568 4.6779 8.38001 4.68011Z" fill="#686868"/>
<path d="M13.54 0H12.69C12.3505 0 12.025 0.134857 11.7849 0.374903C11.5449 0.61495 11.41 0.940523 11.41 1.28V2.41H10.09C10.1336 2.5698 10.1571 2.7344 10.16 2.9C10.1578 3.06566 10.1343 3.23035 10.09 3.39H11.41V4.53C11.41 4.86948 11.5449 5.19505 11.7849 5.4351C12.025 5.67514 12.3505 5.81 12.69 5.81H13.54C13.8787 5.80738 14.2028 5.67169 14.4422 5.43221C14.6817 5.19272 14.8174 4.86867 14.82 4.53V1.28C14.82 0.940523 14.6852 0.61495 14.4451 0.374903C14.2051 0.134857 13.8795 0 13.54 0V0Z" fill="#686868"/>
<path d="M6.61 13.86C6.60794 13.694 6.63155 13.5287 6.68 13.37H5.35V12.24C5.34216 11.9084 5.20491 11.593 4.96758 11.3613C4.73026 11.1296 4.41169 10.9999 4.08 11H3.23C2.90607 11.0125 2.59895 11.1475 2.37065 11.3776C2.14235 11.6078 2.00989 11.916 2 12.24V15.49C2 15.8295 2.13486 16.155 2.3749 16.3951C2.61495 16.6351 2.94052 16.77 3.28 16.77H4.13C4.46774 16.7674 4.79075 16.6313 5.02864 16.3916C5.26653 16.1518 5.40001 15.8278 5.4 15.49V14.35H6.68C6.6309 14.1914 6.60728 14.026 6.61 13.86Z" fill="#686868"/>
<path d="M13.54 11H12.69C12.3505 11 12.025 11.1349 11.7849 11.3749C11.5449 11.615 11.41 11.9405 11.41 12.28V13.41H10.09C10.1336 13.5698 10.1571 13.7344 10.16 13.9C10.1578 14.0657 10.1343 14.2303 10.09 14.39H11.41V15.53C11.41 15.8695 11.5449 16.1951 11.7849 16.4351C12.025 16.6751 12.3505 16.81 12.69 16.81H13.54C13.8787 16.8074 14.2028 16.6717 14.4422 16.4322C14.6817 16.1927 14.8174 15.8687 14.82 15.53V12.24C14.8096 11.9075 14.6702 11.5921 14.4313 11.3607C14.1923 11.1292 13.8727 10.9998 13.54 11Z" fill="#686868"/>
</g>
<defs>
<clipPath id="clip0">
<rect width="16.77" height="16.77" fill="white"/>
</clipPath>
</defs>
</svg>
