<svg width="32" height="32" viewBox="0 0 32 32" fill="none" xmlns="http://www.w3.org/2000/svg">
<path d="M2.42944 9.32568H7.37307C7.63194 9.32568 7.84182 9.11587 7.84182 8.85693C7.84182 8.598 7.63194 8.38818 7.37307 8.38818H2.42944C2.17057 8.38818 1.96069 8.598 1.96069 8.85693C1.96069 9.11587 2.17051 9.32568 2.42944 9.32568Z" fill="#CC2128"/>
<path d="M7.20361 11.582H5.25073C4.99186 11.582 4.78198 11.7918 4.78198 12.0508C4.78198 12.3097 4.99186 12.5195 5.25073 12.5195H7.20361C7.46248 12.5195 7.67236 12.3097 7.67236 12.0508C7.67236 11.7918 7.46248 11.582 7.20361 11.582Z" fill="#CC2128"/>
<path d="M0.46875 14.8328H5.25075C5.50963 14.8328 5.7195 14.623 5.7195 14.364C5.7195 14.1051 5.50963 13.8953 5.25075 13.8953H0.46875C0.209875 13.8953 0 14.1051 0 14.364C0 14.623 0.209875 14.8328 0.46875 14.8328Z" fill="#CC2128"/>
<path d="M7.84182 23.1431C7.84182 22.8841 7.63194 22.6743 7.37307 22.6743H2.42944C2.17057 22.6743 1.96069 22.8841 1.96069 23.1431C1.96069 23.402 2.17057 23.6118 2.42944 23.6118H7.37307C7.63194 23.6118 7.84182 23.402 7.84182 23.1431Z" fill="#CC2128"/>
<path d="M7.20361 19.48H5.25073C4.99186 19.48 4.78198 19.6898 4.78198 19.9487C4.78198 20.2077 4.99186 20.4175 5.25073 20.4175H7.20361C7.46248 20.4175 7.67236 20.2077 7.67236 19.9487C7.67236 19.6898 7.46248 19.48 7.20361 19.48Z" fill="#CC2128"/>
<path d="M5.7195 17.6357C5.7195 17.3768 5.50963 17.167 5.25075 17.167H0.46875C0.209875 17.167 0 17.3768 0 17.6357C0 17.8947 0.209875 18.1045 0.46875 18.1045H5.25075C5.50963 18.1045 5.7195 17.8947 5.7195 17.6357Z" fill="#CC2128"/>
<path d="M19.9706 10.3642C20.2295 10.3642 20.4393 10.1544 20.4393 9.89543V9.17993C20.4393 8.92099 20.2295 8.71118 19.9706 8.71118C19.7116 8.71118 19.5018 8.92099 19.5018 9.17993V9.89543C19.5018 10.1544 19.7116 10.3642 19.9706 10.3642Z" fill="#CC2128"/>
<path d="M25.1244 10.846C24.9413 10.663 24.6445 10.663 24.4615 10.846L23.9555 11.3519C23.7725 11.535 23.7725 11.8318 23.9555 12.0149C24.1387 12.1979 24.4354 12.1979 24.6185 12.0149L25.1244 11.5089C25.3074 11.3259 25.3074 11.0291 25.1244 10.846Z" fill="#CC2128"/>
<path d="M26.075 15.5312C25.816 15.5312 25.6062 15.7411 25.6062 16C25.6062 16.2589 25.816 16.4688 26.075 16.4688H26.7904C27.0493 16.4688 27.2591 16.2589 27.2591 16C27.2591 15.7411 27.0493 15.5312 26.7904 15.5312H26.075Z" fill="#CC2128"/>
<path d="M24.6185 19.9849C24.4353 19.8019 24.1386 19.8019 23.9555 19.9849C23.7725 20.168 23.7725 20.4648 23.9555 20.6478L24.4615 21.1538C24.6447 21.3369 24.9414 21.3368 25.1244 21.1538C25.3075 20.9707 25.3075 20.6739 25.1244 20.4908L24.6185 19.9849Z" fill="#CC2128"/>
<path d="M19.5018 22.1042V22.8197C19.5018 23.0786 19.7116 23.2884 19.9706 23.2884C20.2295 23.2884 20.4393 23.0786 20.4393 22.8197V22.1042C20.4393 21.8453 20.2295 21.6355 19.9706 21.6355C19.7116 21.6355 19.5018 21.8454 19.5018 22.1042Z" fill="#CC2128"/>
<path d="M15.3227 19.9849L14.8167 20.4908C14.6337 20.674 14.6337 20.9707 14.8167 21.1538C14.9999 21.3369 15.2966 21.3368 15.4796 21.1538L15.9855 20.6478C16.1686 20.4647 16.1686 20.168 15.9855 19.9849C15.8025 19.8019 15.5057 19.8019 15.3227 19.9849Z" fill="#CC2128"/>
<path d="M13.1506 15.5312C12.8918 15.5312 12.6819 15.7411 12.6819 16C12.6819 16.2589 12.8918 16.4688 13.1506 16.4688H13.8661C14.125 16.4688 14.3349 16.2589 14.3349 16C14.3349 15.7411 14.125 15.5312 13.8661 15.5312H13.1506Z" fill="#CC2128"/>
<path d="M15.9855 11.3519L15.4796 10.846C15.2965 10.663 14.9997 10.663 14.8167 10.846C14.6337 11.0291 14.6337 11.3259 14.8167 11.5089L15.3227 12.0149C15.5058 12.1979 15.8025 12.1979 15.9855 12.0149C16.1686 11.8318 16.1686 11.535 15.9855 11.3519Z" fill="#CC2128"/>
<path d="M22.4912 15.9998C22.4912 15.7408 22.2814 15.531 22.0225 15.531H20.4393V12.0508C20.4393 11.7918 20.2295 11.582 19.9706 11.582C19.7116 11.582 19.5018 11.7918 19.5018 12.0508V15.9998C19.5018 16.2587 19.7116 16.4685 19.9706 16.4685H22.0225C22.2813 16.4685 22.4912 16.2587 22.4912 15.9998Z" fill="#CC2128"/>
<path d="M28.8588 15.9227C29.1173 15.907 29.314 15.6848 29.2983 15.4264C29.0001 10.5075 24.9029 6.6543 19.9705 6.6543C14.8173 6.6543 10.6248 10.8468 10.6248 16.0001C10.6248 21.1534 14.8173 25.3459 19.9705 25.3459C24.5873 25.3459 28.5268 21.9632 29.2121 17.3985C29.2505 17.1425 29.0741 16.9039 28.8181 16.8654C28.5627 16.8271 28.3234 17.0033 28.2849 17.2594C27.6693 21.3603 24.1283 24.4084 19.9705 24.4084C15.3342 24.4084 11.5623 20.6365 11.5623 16.0002C11.5623 11.3639 15.3342 7.59186 19.9705 7.59186C24.4081 7.59186 28.0943 11.0582 28.3625 15.4833C28.3781 15.7415 28.6001 15.9377 28.8588 15.9227V15.9227Z" fill="#CC2128"/>
<path d="M19.9704 3.97046C18.3216 3.97046 16.7062 4.31252 15.2193 4.95221H6.94873C6.68986 4.95221 6.47998 5.16202 6.47998 5.42096C6.47998 5.6799 6.68986 5.88971 6.94873 5.88971H13.4558C12.576 6.45596 11.766 7.13896 11.0519 7.92746C10.8782 8.11927 10.8928 8.41571 11.0847 8.58952C11.2766 8.76333 11.5729 8.74865 11.7468 8.55677C13.8469 6.2379 16.8444 4.90796 19.9704 4.90796C26.0866 4.90796 31.0624 9.88377 31.0624 15.9999C31.0624 22.116 26.0866 27.0918 19.9704 27.0918C13.8543 27.0918 8.87848 22.116 8.87848 15.9999C8.87848 13.8581 9.4903 11.7794 10.6477 9.98827C10.7882 9.77083 10.7258 9.48071 10.5084 9.34021C10.2909 9.19977 10.0008 9.26202 9.86023 9.47952C8.60461 11.4225 7.94098 13.6772 7.94098 15.9999C7.94098 20.2353 10.1414 23.966 13.4588 26.1101H6.94879C6.68992 26.1101 6.48004 26.3199 6.48004 26.5788C6.48004 26.8378 6.68992 27.0476 6.94879 27.0476H15.2129C16.6729 27.6788 18.2814 28.0293 19.9705 28.0293C26.6035 28.0293 31.9999 22.633 31.9999 15.9999C31.9999 9.36683 26.6035 3.97046 19.9704 3.97046V3.97046Z" fill="#CC2128"/>
</svg>
