<svg width="24" height="24" viewBox="0 0 24 24" fill="none" xmlns="http://www.w3.org/2000/svg">
<g id="Iconly/Light/Filter">
<g id="Filter">
<path id="Stroke 1" fill-rule="evenodd" clip-rule="evenodd" d="M9.1661 6.5003C9.1661 8.24808 7.74832 9.66696 5.99943 9.66696C4.25054 9.66696 2.83276 8.24808 2.83276 6.5003C2.83276 4.75141 4.25054 3.33252 5.99943 3.33252C7.74832 3.33252 9.1661 4.75141 9.1661 6.5003Z" stroke="#CC2128" stroke-width="1.5" stroke-linecap="round" stroke-linejoin="round"/>
<path id="Stroke 3" d="M13.552 6.50038H21.1664" stroke="#CC2128" stroke-width="1.5" stroke-linecap="round" stroke-linejoin="round"/>
<path id="Stroke 5" fill-rule="evenodd" clip-rule="evenodd" d="M14.8334 17.5724C14.8334 15.8235 16.2512 14.4058 18 14.4058C19.7489 14.4058 21.1667 15.8235 21.1667 17.5724C21.1667 19.3213 19.7489 20.7391 18 20.7391C16.2512 20.7391 14.8334 19.3213 14.8334 17.5724Z" stroke="#CC2128" stroke-width="1.5" stroke-linecap="round" stroke-linejoin="round"/>
<path id="Stroke 7" d="M10.4477 17.5724H2.83325" stroke="#CC2128" stroke-width="1.5" stroke-linecap="round" stroke-linejoin="round"/>
</g>
</g>
</svg>
