<svg width="17" height="17" viewBox="0 0 17 17" fill="none" xmlns="http://www.w3.org/2000/svg">
<g clip-path="url(#clip0)">
<path d="M14.78 11.3401C14.78 11.3401 12.78 13.4801 12.78 14.7901C12.78 15.3205 12.9907 15.8292 13.3658 16.2043C13.7409 16.5794 14.2496 16.7901 14.78 16.7901C15.3105 16.7901 15.8192 16.5794 16.1942 16.2043C16.5693 15.8292 16.78 15.3205 16.78 14.7901C16.76 13.4801 14.78 11.3401 14.78 11.3401Z" fill="#686868"/>
<path d="M4.55998 0L3.16998 1.4L5.51998 3.74L0.439976 8.82C0.165764 9.0987 0.012085 9.47402 0.012085 9.865C0.012085 10.256 0.165764 10.6313 0.439976 10.91L5.86998 16.33C6.13319 16.6014 6.49202 16.7593 6.86998 16.77C7.247 16.7552 7.60438 16.598 7.86998 16.33L13.29 10.91C13.4281 10.7733 13.5378 10.6106 13.6127 10.4312C13.6876 10.2518 13.7261 10.0594 13.7261 9.865C13.7261 9.67063 13.6876 9.47819 13.6127 9.29882C13.5378 9.11945 13.4281 8.9567 13.29 8.82L4.55998 0ZM2.17998 9.86L6.90998 5.14L11.64 9.86H2.17998Z" fill="#686868"/>
</g>
<defs>
<clipPath id="clip0">
<rect width="16.77" height="16.77" fill="white"/>
</clipPath>
</defs>
</svg>
