<svg width="24" height="24" viewBox="0 0 24 24" fill="none" xmlns="http://www.w3.org/2000/svg">
<g id="Iconly/Two-tone/Graph">
<g id="Graph">
<path id="Path_33948" opacity="0.4" fill-rule="evenodd" clip-rule="evenodd" d="M20.1501 7.76776C19.7371 5.07923 17.5785 3.07911 15.0047 3.00037C14.8824 2.9953 14.7631 3.04191 14.6733 3.12993C14.5834 3.21794 14.5303 3.34015 14.5257 3.46961V3.46961V3.5134L14.8155 8.09935C14.8345 8.40806 15.0854 8.64273 15.3773 8.62488L19.7242 8.31832C19.8467 8.30874 19.9605 8.24788 20.0405 8.14924C20.1204 8.05059 20.1598 7.9223 20.1501 7.79278V7.76776Z" stroke="#42BA18" stroke-width="1.5" stroke-linecap="round" stroke-linejoin="round"/>
<path id="Path_33949" d="M9.91434 3.86499C10.3959 3.75361 10.8886 3.99999 11.0884 4.45203C11.1408 4.55836 11.1722 4.67373 11.1811 4.7919C11.2841 6.25436 11.5004 9.45736 11.624 11.1876C11.6451 11.4993 11.7895 11.7897 12.0253 11.9946C12.2611 12.1995 12.5689 12.3019 12.8805 12.2793V12.2793L19.2349 11.8879C19.5186 11.8709 19.7968 11.9718 20.0035 12.1668C20.2102 12.3619 20.3272 12.6336 20.3266 12.9178V12.9178C20.0691 16.7551 17.3122 19.963 13.5573 20.7945C9.80239 21.626 5.94888 19.882 4.09539 16.5122C3.54209 15.5423 3.1917 14.4701 3.06549 13.3607C3.01154 13.0202 2.99084 12.6753 3.0037 12.3308C3.01463 8.23293 5.89257 4.70207 9.90404 3.86499" stroke="#42BA18" stroke-width="1.5" stroke-linecap="round" stroke-linejoin="round"/>
</g>
</g>
</svg>
