<svg width="24" height="24" viewBox="0 0 24 24" fill="none" xmlns="http://www.w3.org/2000/svg">
<g id="Iconly/Bulk/Filter">
<g id="Filter">
<path id="Fill 1" d="M18.2175 13.8628C16.1286 13.8628 14.4342 15.5719 14.4342 17.6813C14.4342 19.7897 16.1286 21.4999 18.2175 21.4999C20.3064 21.4999 21.9997 19.7897 21.9997 17.6813C21.9997 15.5719 20.3064 13.8628 18.2175 13.8628" fill="#CC2128"/>
<path id="Fill 4" opacity="0.4" d="M10.0834 16.1606H3.50788C2.67567 16.1606 2.00012 16.8425 2.00012 17.6813C2.00012 18.5202 2.67567 19.2031 3.50788 19.2031H10.0834C10.9145 19.2031 11.59 18.5202 11.59 17.6813C11.59 16.8425 10.9145 16.1606 10.0834 16.1606" fill="#CC2128"/>
<path id="Fill 7" d="M5.78329 10.1371C7.87216 10.1371 9.56658 8.428 9.56658 6.31967C9.56658 4.21022 7.87216 2.5 5.78329 2.5C3.69443 2.5 2 4.21022 2 6.31967C2 8.428 3.69443 10.1371 5.78329 10.1371" fill="#CC2128"/>
<path id="Fill 10" opacity="0.4" d="M22 6.31927C22 5.48043 21.3245 4.79858 20.4934 4.79858H13.9179C13.0857 4.79858 12.4102 5.48043 12.4102 6.31927C12.4102 7.15812 13.0857 7.83997 13.9179 7.83997H20.4934C21.3245 7.83997 22 7.15812 22 6.31927" fill="#CC2128"/>
</g>
</g>
</svg>
