<svg width="17" height="17" viewBox="0 0 17 17" fill="none" xmlns="http://www.w3.org/2000/svg">
<g clip-path="url(#clip0)">
<path d="M8.86999 13.14V8.86997H14.33V3.62997C14.7257 3.52839 15.0767 3.29869 15.3281 2.97669C15.5796 2.65469 15.7174 2.25851 15.72 1.84997C15.72 1.35136 15.5219 0.873178 15.1693 0.52061C14.8168 0.168042 14.3386 -0.0300292 13.84 -0.0300292C13.3414 -0.0300292 12.8632 0.168042 12.5106 0.52061C12.1581 0.873178 11.96 1.35136 11.96 1.84997C11.9631 2.25544 12.0986 2.64879 12.346 2.97012C12.5933 3.29145 12.9388 3.52316 13.33 3.62997V7.88997H8.86999V3.62997C9.26571 3.52839 9.61667 3.29869 9.86812 2.97669C10.1196 2.65469 10.2574 2.25851 10.26 1.84997C10.26 1.35136 10.0619 0.873178 9.70935 0.52061C9.35678 0.168042 8.87859 -0.0300293 8.37999 -0.0300293C7.88138 -0.0300293 7.4032 0.168042 7.05063 0.52061C6.69806 0.873178 6.49999 1.35136 6.49999 1.84997C6.50536 2.25632 6.64295 2.64986 6.89195 2.97103C7.14095 3.2922 7.48779 3.52352 7.87999 3.62997V7.88997H3.41999V3.62997C3.81571 3.52839 4.16667 3.29869 4.41812 2.97669C4.66957 2.65469 4.80736 2.25851 4.80999 1.84997C4.80999 1.35136 4.61192 0.873178 4.25935 0.52061C3.90678 0.168042 3.42859 -0.0300293 2.92999 -0.0300293C2.43138 -0.0300293 1.9532 0.168042 1.60063 0.52061C1.24806 0.873178 1.04999 1.35136 1.04999 1.84997C1.05311 2.25544 1.18864 2.64879 1.43596 2.97012C1.68328 3.29145 2.02882 3.52316 2.41999 3.62997V13.14C1.98982 13.2618 1.61831 13.5353 1.37419 13.9098C1.13006 14.2843 1.02983 14.7346 1.09203 15.1774C1.15423 15.6201 1.37466 16.0253 1.71254 16.3181C2.05043 16.6109 2.48291 16.7714 2.92999 16.77C3.42423 16.7726 3.89942 16.5795 4.25171 16.2329C4.60399 15.8862 4.80471 15.4142 4.80999 14.92C4.80736 14.5114 4.66957 14.1153 4.41812 13.7933C4.16667 13.4713 3.81571 13.2415 3.41999 13.14V8.86997H7.87999V13.14C7.43873 13.261 7.05636 13.538 6.80385 13.9196C6.55134 14.3012 6.44583 14.7614 6.5069 15.2149C6.56797 15.6684 6.79147 16.0843 7.13593 16.3855C7.4804 16.6866 7.92242 16.8526 8.37999 16.8526C8.83755 16.8526 9.27958 16.6866 9.62404 16.3855C9.9685 16.0843 10.192 15.6684 10.2531 15.2149C10.3141 14.7614 10.2086 14.3012 9.95613 13.9196C9.70361 13.538 9.32125 13.261 8.87999 13.14H8.86999Z" fill="#686868"/>
<path d="M13.84 13.0699C13.4755 13.0758 13.1208 13.1893 12.8205 13.3961C12.5203 13.603 12.2878 13.8939 12.1524 14.2324C12.0169 14.5709 11.9846 14.9419 12.0593 15.2988C12.134 15.6557 12.3126 15.9825 12.5724 16.2382C12.8323 16.494 13.162 16.6672 13.52 16.7362C13.878 16.8052 14.2484 16.7668 14.5847 16.626C14.921 16.4851 15.2082 16.248 15.4102 15.9445C15.6122 15.6409 15.72 15.2845 15.72 14.9199C15.7147 14.4256 15.514 13.9536 15.1617 13.6069C14.8095 13.2603 14.3343 13.0672 13.84 13.0699Z" fill="#686868"/>
</g>
<defs>
<clipPath id="clip0">
<rect width="16.77" height="16.77" fill="white"/>
</clipPath>
</defs>
</svg>
