<svg width="24" height="24" viewBox="0 0 24 24" fill="none" xmlns="http://www.w3.org/2000/svg">
<path fill-rule="evenodd" clip-rule="evenodd" d="M18.7977 10.5549C18.9304 10.0173 18.999 9.49291 18.999 8.98324C18.999 5.1261 15.8731 2.00024 12.016 2.00024C8.15869 2.00024 5.032 5.12627 5.032 8.98324C5.032 9.53944 5.11484 10.114 5.2745 10.7049C5.74236 12.4365 6.84596 14.256 8.39125 16.0945L8.45235 16.1669C4.66296 16.554 2 17.5741 2 18.9944C2 20.8272 6.4345 21.9944 12 21.9944C17.5655 21.9944 22 20.8272 22 18.9944C22 17.7762 20.2229 16.9237 17.3372 16.4189C17.0651 16.3713 16.8061 16.5533 16.7585 16.8253C16.7109 17.0973 16.8928 17.3564 17.1648 17.404C19.5479 17.8208 21 18.5174 21 18.9944C21 19.3377 20.1463 19.8689 18.5904 20.2784C16.8649 20.7326 14.5133 20.9944 12 20.9944C9.48669 20.9944 7.13514 20.7326 5.40965 20.2784C3.85371 19.8689 3 19.3377 3 18.9944C3 18.6512 3.85362 18.1203 5.40958 17.711C6.49173 17.4263 7.82022 17.2173 9.28051 17.1009C9.73269 17.5888 10.1957 18.0547 10.6588 18.494C10.9294 18.7506 11.181 18.9799 11.4072 19.1789C11.544 19.2992 11.6428 19.3834 11.6971 19.4284L12.0149 19.6915L12.3336 19.4294C12.388 19.3847 12.4868 19.301 12.6237 19.1813C12.8499 18.9835 13.1015 18.7555 13.3722 18.5C14.1449 17.7706 14.9176 16.9662 15.6399 16.1088C17.2342 14.2163 18.357 12.3407 18.7977 10.5549ZM9.15675 15.451C9.33157 15.659 9.50961 15.864 9.69005 16.0656C10.4304 16.0193 11.2036 15.9954 12 15.9954C12.2761 15.9954 12.5 16.2193 12.5 16.4954C12.5 16.7716 12.2761 16.9954 12 16.9954C11.5226 16.9954 11.0511 17.0049 10.5886 17.0233C10.8401 17.2793 11.0935 17.528 11.347 17.7684C11.5881 17.9971 11.8131 18.2029 12.017 18.3833C12.2205 18.2042 12.4451 17.9999 12.6858 17.7728C13.4325 17.068 14.1793 16.2905 14.8751 15.4645C16.3794 13.6789 17.4298 11.9243 17.8269 10.3153C17.9409 9.85343 17.999 9.40891 17.999 8.98324C17.999 5.67839 15.3209 3.00024 12.016 3.00024C8.71093 3.00024 6.032 5.6786 6.032 8.98324C6.032 9.44727 6.10231 9.93492 6.23988 10.4441C6.6628 12.0093 7.69681 13.7141 9.15675 15.451ZM14.0156 8.99054C14.0156 7.88631 13.1201 6.99054 12.0156 6.99054C11.7395 6.99054 11.5156 6.76669 11.5156 6.49054C11.5156 6.2144 11.7395 5.99054 12.0156 5.99054C13.6724 5.99054 15.0156 7.33409 15.0156 8.99054C15.0156 10.6477 13.6727 11.9905 12.0156 11.9905C10.3585 11.9905 9.0156 10.6477 9.0156 8.99054C9.0156 8.7144 9.23946 8.49054 9.5156 8.49054C9.79174 8.49054 10.0156 8.7144 10.0156 8.99054C10.0156 10.0954 10.9107 10.9905 12.0156 10.9905C13.1205 10.9905 14.0156 10.0954 14.0156 8.99054Z" fill="#CC2128"/>
</svg>
