<svg width="17" height="17" viewBox="0 0 17 17" fill="none" xmlns="http://www.w3.org/2000/svg">
<g clip-path="url(#clip0)">
<path d="M3 10.4901H1.8C1.8 11.0301 1.8 11.5601 1.8 12.1001C1.8 12.6401 1.59 12.8701 0.86 12.8701C0.13 12.8701 0 12.6801 0 12.0901V7.09009C0 6.51009 0.22 6.32009 0.87 6.32009C1.52 6.32009 1.79 6.49009 1.8 7.08009C1.81 7.67009 1.8 8.08009 1.8 8.57009C1.7976 8.61005 1.7976 8.65012 1.8 8.69009H3C3 7.92009 3 7.20009 3 6.48009C2.97333 6.29133 2.99089 6.09895 3.05132 5.91814C3.11174 5.73734 3.21336 5.57305 3.34816 5.43825C3.48296 5.30345 3.64725 5.20183 3.82805 5.1414C4.00886 5.08098 4.20124 5.06341 4.39 5.09009H6.55V3.89009H4.43C3.79 3.89009 3.59 3.70009 3.59 3.09009C3.59 2.28009 3.74 2.09009 4.44 2.09009C6.5 2.09009 8.55333 2.09009 10.6 2.09009C11.2 2.09009 11.38 2.29009 11.38 2.98009C11.38 3.67009 11.21 3.88009 10.6 3.88009H8.41V5.08009H10.73C10.898 5.06853 11.0666 5.09278 11.2246 5.15123C11.3826 5.20969 11.5264 5.30101 11.6464 5.41917C11.7665 5.53733 11.8601 5.67963 11.921 5.83666C11.982 5.9937 12.0089 6.16188 12 6.33009C12 6.57009 12 6.81009 12 7.05009V7.46009H13.8V6.21009C13.8 5.21009 13.9 5.07009 14.95 5.09009C15.3756 5.08008 15.791 5.22127 16.1224 5.48857C16.4538 5.75587 16.6797 6.13198 16.76 6.55009C16.7752 6.71975 16.7752 6.89043 16.76 7.06009C16.76 8.74009 16.76 10.4201 16.76 12.0601C16.76 13.4501 15.76 14.2401 14.23 14.0001C14.0804 13.9731 13.9469 13.8894 13.8575 13.7665C13.7681 13.6435 13.7296 13.4908 13.75 13.3401C13.75 12.7801 13.75 12.2301 13.75 11.6601H12C12 12.1701 12 12.6601 12 13.2101C12.031 13.4023 12.0159 13.5991 11.956 13.7843C11.8961 13.9695 11.7931 14.1378 11.6554 14.2755C11.5178 14.4131 11.3494 14.5161 11.1642 14.5761C10.979 14.636 10.7822 14.6511 10.59 14.6201C9.07 14.6201 7.54 14.6201 6.02 14.6201C5.6603 14.5925 5.31476 14.4681 5.02 14.2601C4.48 13.8601 4.02 13.3901 3.5 12.9501C3.34522 12.8265 3.22 12.6698 3.13349 12.4916C3.04699 12.3134 3.00138 12.1182 3 11.9201C3 11.4601 3 11.0001 3 10.4901ZM7.8 12.6301L8.35 11.8801C8.35 11.8801 9.08 10.8301 9.42 10.2901C9.76 9.75009 9.5 9.29009 8.86 9.29009H7.77V7.18009C7.77 7.18009 6.48 8.91009 6.18 9.45009C6.11942 9.55321 6.08101 9.66784 6.06724 9.78665C6.05346 9.90546 6.06462 10.0258 6.1 10.1401C6.19 10.3201 6.5 10.4201 6.73 10.4601C7.08622 10.4853 7.44378 10.4853 7.8 10.4601V12.6301Z" fill="#686868"/>
</g>
<defs>
<clipPath id="clip0">
<rect width="16.77" height="16.77" fill="white"/>
</clipPath>
</defs>
</svg>
