<svg width="48" height="48" viewBox="0 0 48 48" fill="none" xmlns="http://www.w3.org/2000/svg">
<path d="M45.75 8.25H2.25C2.05109 8.25 1.86032 8.32902 1.71967 8.46967C1.57902 8.61032 1.5 8.80109 1.5 9V31.5C1.5 31.6989 1.57902 31.8897 1.71967 32.0303C1.86032 32.171 2.05109 32.25 2.25 32.25H28.5375C28.7288 34.5647 29.8079 36.7158 31.5489 38.2531C33.29 39.7904 35.5582 40.5947 37.8788 40.4978C40.1994 40.4009 42.3926 39.4103 43.9995 37.7332C45.6063 36.0562 46.5024 33.8226 46.5 31.5V9C46.5 8.80109 46.421 8.61032 46.2803 8.46967C46.1397 8.32902 45.9489 8.25 45.75 8.25ZM42 23.7173C40.9173 23.087 39.7145 22.6905 38.4691 22.5535C37.2237 22.4165 35.9635 22.5421 34.7696 22.922C33.5758 23.302 32.4748 23.9279 31.5377 24.7595C30.6006 25.5911 29.8482 26.6098 29.3289 27.75H12.0578C11.5289 26.3721 10.7163 25.1208 9.67272 24.0771C8.62914 23.0334 7.37785 22.2208 6 21.6918V12.75H35.9422C36.4711 14.1278 37.2837 15.379 38.3273 16.4226C39.3709 17.4661 40.6222 18.2787 42 18.8076V23.7173ZM37.5 39C36.0166 39 34.5666 38.5601 33.3332 37.736C32.0999 36.9119 31.1386 35.7406 30.5709 34.3701C30.0032 32.9997 29.8547 31.4917 30.1441 30.0368C30.4335 28.582 31.1478 27.2456 32.1967 26.1967C33.2456 25.1478 34.582 24.4335 36.0368 24.1441C37.4917 23.8547 38.9997 24.0032 40.3701 24.5709C41.7406 25.1386 42.9119 26.0999 43.736 27.3332C44.5601 28.5666 45 30.0166 45 31.5C44.9977 33.4884 44.2068 35.3948 42.8008 36.8008C41.3948 38.2068 39.4884 38.9977 37.5 39ZM43.5 24.8108V18.2772C43.5 18.1186 43.4498 17.9641 43.3565 17.8359C43.2632 17.7076 43.1316 17.6123 42.9807 17.5635C41.626 17.1236 40.3947 16.3692 39.3875 15.362C38.3803 14.3549 37.6258 13.1236 37.1858 11.7689C37.137 11.6181 37.0417 11.4866 36.9135 11.3934C36.7853 11.3001 36.6309 11.2499 36.4724 11.25H5.25C5.05109 11.25 4.86032 11.329 4.71967 11.4697C4.57902 11.6103 4.5 11.8011 4.5 12V22.2225C4.49998 22.3811 4.55023 22.5356 4.64353 22.6638C4.73684 22.7921 4.86838 22.8874 5.01928 22.9362C6.374 23.3762 7.60533 24.1306 8.61254 25.1377C9.61975 26.1448 10.3742 27.3761 10.8143 28.7308C10.863 28.8817 10.9582 29.0132 11.0864 29.1065C11.2145 29.1998 11.369 29.25 11.5275 29.25H28.7963C28.6676 29.7417 28.5813 30.2436 28.5381 30.75H3V9.75H45V26.5355C44.5748 25.8995 44.0708 25.3199 43.5 24.8105V24.8108Z" fill="#CC2128"/>
<path d="M40.9038 34.5049C40.6144 34.8244 40.2769 35.0967 39.9033 35.312L40.6503 36.6128C41.6744 36.0224 42.4877 35.1259 42.9758 34.0493L41.6091 33.4316C41.4318 33.8242 41.1938 34.1864 40.9038 34.5049Z" fill="#CC2128"/>
<path d="M35.0958 27.4453L34.3489 26.1445C33.3248 26.7351 32.5115 27.6317 32.0234 28.7084L33.3902 29.3258C33.7486 28.5363 34.345 27.8787 35.096 27.4453H35.0958Z" fill="#CC2128"/>
<path d="M26.25 14.25H21.75C21.5511 14.25 21.3603 14.329 21.2197 14.4697C21.079 14.6103 21 14.8011 21 15V21.75H19.5V23.25H21V26.25H22.5V23.25H27.75V21.75H22.5V20.25H26.25C27.0456 20.25 27.8087 19.9339 28.3713 19.3713C28.9339 18.8087 29.25 18.0456 29.25 17.25C29.25 16.4544 28.9339 15.6913 28.3713 15.1287C27.8087 14.5661 27.0456 14.25 26.25 14.25ZM26.25 18.75H22.5V15.75H26.25C26.6478 15.75 27.0294 15.908 27.3107 16.1893C27.592 16.4706 27.75 16.8522 27.75 17.25C27.75 17.6478 27.592 18.0294 27.3107 18.3107C27.0294 18.592 26.6478 18.75 26.25 18.75Z" fill="#CC2128"/>
<path d="M36.7852 32.25H39.75C40.3467 32.25 40.919 32.0129 41.341 31.591C41.7629 31.169 42 30.5967 42 30C42 29.4033 41.7629 28.831 41.341 28.409C40.919 27.9871 40.3467 27.75 39.75 27.75H36.0352C35.8362 27.75 35.6455 27.829 35.5048 27.9697C35.3642 28.1103 35.2852 28.3011 35.2852 28.5V33H33.7852V34.5H35.2852V36H36.7852V34.5H39.7852V33H36.7852V32.25ZM40.5 30C40.4998 30.1989 40.4207 30.3895 40.2801 30.5301C40.1395 30.6707 39.9489 30.7498 39.75 30.75H36.7852V29.25H39.75C39.9489 29.2502 40.1395 29.3293 40.2801 29.4699C40.4207 29.6105 40.4998 29.8011 40.5 30Z" fill="#CC2128"/>
</svg>
