<svg width="17" height="17" viewBox="0 0 17 17" fill="none" xmlns="http://www.w3.org/2000/svg">
<g clip-path="url(#clip0)">
<path d="M3.00001 11.11C3.07791 12.0243 3.39143 12.9029 3.91001 13.66H12.91C13.4286 12.9029 13.7421 12.0243 13.82 11.11H12.64V10.11H13.8C13.7048 9.00629 13.2718 7.95877 12.56 7.10995L11.74 7.99995L11.05 7.30995L11.86 6.49995C11.0097 5.78897 9.96356 5.35306 8.86001 5.24995V6.35995H7.86001V5.19995C6.75693 5.3049 5.71126 5.7406 4.86001 6.44995L5.68001 7.25995L5.00001 7.99995L4.19001 7.18995C3.47822 8.03877 3.04524 9.08629 2.95001 10.19H4.12001V11.19L3.00001 11.11ZM7.89001 9.26995V7.34995H8.89001V9.26995C9.18066 9.37257 9.43233 9.5628 9.61035 9.81444C9.78836 10.0661 9.88395 10.3667 9.88395 10.675C9.88395 10.9832 9.78836 11.2838 9.61035 11.5355C9.43233 11.7871 9.18066 11.9773 8.89001 12.08V12.88H7.89001V12.08C7.59936 11.9773 7.34769 11.7871 7.16968 11.5355C6.99166 11.2838 6.89607 10.9832 6.89607 10.675C6.89607 10.3667 6.99166 10.0661 7.16968 9.81444C7.34769 9.5628 7.59936 9.37257 7.89001 9.26995Z" fill="#686868"/>
<path d="M8.38 11.1799C8.48086 11.1799 8.57947 11.15 8.66334 11.094C8.7472 11.0379 8.81257 10.9583 8.85117 10.8651C8.88977 10.7719 8.89987 10.6693 8.8802 10.5704C8.86052 10.4715 8.81194 10.3806 8.74062 10.3093C8.66929 10.238 8.57842 10.1894 8.47949 10.1697C8.38056 10.15 8.27802 10.1601 8.18483 10.1987C8.09164 10.2373 8.01199 10.3027 7.95595 10.3866C7.89991 10.4704 7.87 10.569 7.87 10.6699C7.87 10.8052 7.92373 10.9349 8.01937 11.0305C8.11501 11.1262 8.24473 11.1799 8.38 11.1799Z" fill="#686868"/>
<path d="M14.3 4.70012C12.7289 3.13196 10.5998 2.25122 8.37999 2.25122C6.1602 2.25122 4.03109 3.13196 2.45999 4.70012C1.21728 5.94386 0.397785 7.54735 0.117769 9.28309C-0.162248 11.0188 0.111435 12.7987 0.899988 14.3701L1.02999 14.6401H3.37999L3.22999 14.4401C2.41586 13.3342 1.98409 11.9933 1.99999 10.6201C1.99789 9.60329 2.23735 8.6005 2.69865 7.69433C3.15996 6.78816 3.82991 6.00452 4.65334 5.40794C5.47677 4.81137 6.43013 4.41891 7.43493 4.26289C8.43972 4.10688 9.4672 4.19176 10.4328 4.51055C11.3983 4.82935 12.2744 5.37294 12.9887 6.09656C13.7031 6.82018 14.2354 7.70314 14.5417 8.67273C14.848 9.64231 14.9197 10.6708 14.7507 11.6735C14.5818 12.6762 14.1771 13.6244 13.57 14.4401L13.42 14.6401H15.76L15.9 14.3701C16.679 12.7936 16.9437 11.0124 16.6566 9.27756C16.3695 7.54269 15.5453 5.94165 14.3 4.70012Z" fill="#686868"/>
</g>
<defs>
<clipPath id="clip0">
<rect width="16.77" height="16.77" fill="white"/>
</clipPath>
</defs>
</svg>
