<svg width="24" height="24" viewBox="0 0 24 24" fill="none" xmlns="http://www.w3.org/2000/svg">
<path d="M1.82214 6.99414H5.52986C5.72402 6.99414 5.88142 6.83678 5.88142 6.64258C5.88142 6.44837 5.72402 6.29102 5.52986 6.29102H1.82214C1.62799 6.29102 1.47058 6.44837 1.47058 6.64258C1.47058 6.83678 1.62794 6.99414 1.82214 6.99414Z" fill="#CC2128"/>
<path d="M5.40264 8.68652H3.93799C3.74383 8.68652 3.58643 8.84388 3.58643 9.03809C3.58643 9.23229 3.74383 9.38965 3.93799 9.38965H5.40264C5.5968 9.38965 5.75421 9.23229 5.75421 9.03809C5.75421 8.84388 5.5968 8.68652 5.40264 8.68652Z" fill="#CC2128"/>
<path d="M0.351562 11.1245H3.93806C4.13222 11.1245 4.28963 10.9672 4.28963 10.7729C4.28963 10.5787 4.13222 10.4214 3.93806 10.4214H0.351562C0.157406 10.4214 0 10.5787 0 10.7729C0 10.9672 0.157406 11.1245 0.351562 11.1245Z" fill="#CC2128"/>
<path d="M5.88142 17.3572C5.88142 17.163 5.72402 17.0056 5.52986 17.0056H1.82214C1.62799 17.0056 1.47058 17.163 1.47058 17.3572C1.47058 17.5514 1.62799 17.7087 1.82214 17.7087H5.52986C5.72402 17.7087 5.88142 17.5514 5.88142 17.3572Z" fill="#CC2128"/>
<path d="M5.40264 14.6101H3.93799C3.74383 14.6101 3.58643 14.7675 3.58643 14.9617C3.58643 15.1559 3.74383 15.3132 3.93799 15.3132H5.40264C5.5968 15.3132 5.75421 15.1559 5.75421 14.9617C5.75421 14.7675 5.5968 14.6101 5.40264 14.6101Z" fill="#CC2128"/>
<path d="M4.28963 13.2266C4.28963 13.0324 4.13222 12.875 3.93806 12.875H0.351562C0.157406 12.875 0 13.0324 0 13.2266C0 13.4208 0.157406 13.5781 0.351562 13.5781H3.93806C4.13222 13.5781 4.28963 13.4208 4.28963 13.2266Z" fill="#CC2128"/>
<path d="M14.9779 7.7732C15.1721 7.7732 15.3295 7.61584 15.3295 7.42163V6.88501C15.3295 6.69081 15.1721 6.53345 14.9779 6.53345C14.7837 6.53345 14.6263 6.69081 14.6263 6.88501V7.42163C14.6263 7.61584 14.7837 7.7732 14.9779 7.7732Z" fill="#CC2128"/>
<path d="M18.8433 8.13443C18.7059 7.99718 18.4834 7.99718 18.3461 8.13443L17.9666 8.51388C17.8293 8.65123 17.8293 8.87379 17.9666 9.01108C18.104 9.14838 18.3265 9.14833 18.4638 9.01108L18.8433 8.63163C18.9805 8.49434 18.9805 8.27177 18.8433 8.13443Z" fill="#CC2128"/>
<path d="M19.5563 11.6484C19.3621 11.6484 19.2047 11.8058 19.2047 12C19.2047 12.1942 19.3621 12.3516 19.5563 12.3516H20.0929C20.2871 12.3516 20.4444 12.1942 20.4444 12C20.4444 11.8058 20.2871 11.6484 20.0929 11.6484H19.5563Z" fill="#CC2128"/>
<path d="M18.4638 14.9887C18.3265 14.8514 18.1039 14.8514 17.9666 14.9887C17.8293 15.126 17.8293 15.3486 17.9666 15.4859L18.3461 15.8653C18.4835 16.0026 18.706 16.0026 18.8433 15.8653C18.9806 15.728 18.9806 15.5054 18.8433 15.3681L18.4638 14.9887Z" fill="#CC2128"/>
<path d="M14.6263 16.5781V17.1147C14.6263 17.3089 14.7837 17.4663 14.9779 17.4663C15.1721 17.4663 15.3295 17.3089 15.3295 17.1147V16.5781C15.3295 16.3839 15.1721 16.2266 14.9779 16.2266C14.7837 16.2266 14.6263 16.384 14.6263 16.5781Z" fill="#CC2128"/>
<path d="M11.4919 14.9887L11.1125 15.3681C10.9752 15.5055 10.9752 15.728 11.1125 15.8653C11.2498 16.0026 11.4724 16.0026 11.6096 15.8653L11.9891 15.4859C12.1264 15.3485 12.1264 15.126 11.9891 14.9887C11.8518 14.8514 11.6292 14.8514 11.4919 14.9887Z" fill="#CC2128"/>
<path d="M9.86304 11.6484C9.66888 11.6484 9.51147 11.8058 9.51147 12C9.51147 12.1942 9.66888 12.3516 9.86304 12.3516H10.3997C10.5938 12.3516 10.7512 12.1942 10.7512 12C10.7512 11.8058 10.5938 11.6484 10.3997 11.6484H9.86304Z" fill="#CC2128"/>
<path d="M11.9892 8.51388L11.6098 8.13443C11.4725 7.99718 11.2499 7.99718 11.1126 8.13443C10.9753 8.27177 10.9753 8.49434 11.1126 8.63163L11.4921 9.01108C11.6294 9.14838 11.852 9.14833 11.9892 9.01108C12.1265 8.87379 12.1265 8.65123 11.9892 8.51388Z" fill="#CC2128"/>
<path d="M20.717 11.9503C20.8831 11.9402 21.0095 11.7976 20.9994 11.6317C20.8078 8.47375 18.175 6 15.0055 6C11.6941 6 9 8.69159 9 12C9 15.3084 11.6941 18 15.0055 18C17.9722 18 20.5036 15.8284 20.944 12.8978C20.9687 12.7335 20.8554 12.5802 20.6908 12.5556C20.5267 12.531 20.373 12.6441 20.3483 12.8085C19.9527 15.4413 17.6772 17.3982 15.0055 17.3982C12.0262 17.3982 9.60243 14.9766 9.60243 12.0001C9.60243 9.02354 12.0262 6.60192 15.0055 6.60192C17.857 6.60192 20.2257 8.82729 20.3981 11.6682C20.4081 11.834 20.5508 11.9599 20.717 11.9503V11.9503Z" fill="#CC2128"/>
<path d="M14.9778 2.97778C13.7412 2.97778 12.5296 3.23433 11.4145 3.7141H5.21155C5.01739 3.7141 4.85999 3.87146 4.85999 4.06566C4.85999 4.25986 5.01739 4.41722 5.21155 4.41722H10.0919C9.43199 4.84191 8.82454 5.35416 8.28894 5.94553C8.15863 6.08939 8.1696 6.31172 8.3135 6.44208C8.45746 6.57244 8.67969 6.56142 8.8101 6.41752C10.3852 4.67836 12.6333 3.68091 14.9778 3.68091C19.5649 3.68091 23.2968 7.41277 23.2968 11.9999C23.2968 16.5869 19.565 20.3188 14.9778 20.3188C10.3907 20.3188 6.65886 16.587 6.65886 11.9999C6.65886 10.3935 7.11772 8.83449 7.98575 7.49114C8.09113 7.32806 8.04435 7.11047 7.88127 7.0051C7.71819 6.89977 7.5006 6.94645 7.39518 7.10958C6.45346 8.56683 5.95574 10.2578 5.95574 11.9999C5.95574 15.1764 7.60602 17.9745 10.0941 19.5825H5.2116C5.01744 19.5825 4.86003 19.7399 4.86003 19.9341C4.86003 20.1283 5.01744 20.2856 5.2116 20.2856H11.4096C12.5047 20.759 13.7111 21.0219 14.9779 21.0219C19.9526 21.0219 24 16.9747 24 11.9999C24 7.02506 19.9526 2.97778 14.9778 2.97778V2.97778Z" fill="#CC2128"/>
</svg>
