<svg width="56" height="56" viewBox="0 0 56 56" fill="none" xmlns="http://www.w3.org/2000/svg">
<g id="time">
<g id="time_2">
<path id="Combined Shape" fill-rule="evenodd" clip-rule="evenodd" d="M27.2742 50.2051C39.4251 50.2051 49.2742 40.3561 49.2742 28.2051C49.2742 16.0542 39.4251 6.20514 27.2742 6.20514C15.1233 6.20514 5.2742 16.0542 5.2742 28.2051C5.2742 40.3561 15.1233 50.2051 27.2742 50.2051ZM27.2742 8.40511C38.2101 8.40511 47.0742 17.2692 47.0742 28.2051C47.0742 39.141 38.2101 48.0051 27.2742 48.0051C16.3383 48.0051 7.47422 39.141 7.47422 28.2051C7.47422 17.2692 16.3383 8.40511 27.2742 8.40511ZM10.7742 29.3052H12.9742C13.5817 29.3052 14.0742 28.8127 14.0742 28.2052C14.0742 27.5977 13.5817 27.1052 12.9742 27.1052H10.7742C10.1667 27.1052 9.67422 27.5977 9.67422 28.2052C9.67422 28.8127 10.1667 29.3052 10.7742 29.3052ZM43.7742 29.3052H41.5742C40.9667 29.3052 40.4742 28.8127 40.4742 28.2052C40.4742 27.5977 40.9667 27.1052 41.5742 27.1052H43.7742C44.3817 27.1052 44.8742 27.5977 44.8742 28.2052C44.8742 28.8127 44.3817 29.3052 43.7742 29.3052ZM26.1742 11.7052V13.9052C26.1742 14.5127 26.6667 15.0052 27.2742 15.0052C27.8817 15.0052 28.3742 14.5127 28.3742 13.9052V11.7052C28.3742 11.0977 27.8817 10.6052 27.2742 10.6052C26.6667 10.6052 26.1742 11.0977 26.1742 11.7052ZM26.1742 44.7051V42.5051C26.1742 41.8976 26.6667 41.4051 27.2742 41.4051C27.8817 41.4051 28.3742 41.8976 28.3742 42.5051V44.7051C28.3742 45.3126 27.8817 45.8051 27.2742 45.8051C26.6667 45.8051 26.1742 45.3126 26.1742 44.7051ZM28.2938 28.5503C28.219 28.8175 28.0438 29.0569 27.7844 29.2066L21.235 32.9884C20.7089 33.2922 20.0362 33.112 19.7324 32.5859C19.4286 32.0598 19.6088 31.387 20.1349 31.0832L26.3333 27.5042L29.6017 18.5208C29.8094 17.9499 30.4406 17.6555 31.0115 17.8632C31.5824 18.0709 31.8768 18.7021 31.6691 19.273L28.2938 28.5503Z" fill="white"/>
</g>
</g>
</svg>
